<?xml version="1.0" encoding="UTF-8"?><svg id="_레이어_2" xmlns="http://www.w3.org/2000/svg" xmlns:xlink="http://www.w3.org/1999/xlink" viewBox="0 0 1164.83 377.73"><defs><style>.cls-1{fill:url(#_무제_그라디언트_10-12);}.cls-1,.cls-2,.cls-3,.cls-4,.cls-5,.cls-6,.cls-7,.cls-8,.cls-9,.cls-10,.cls-11,.cls-12,.cls-13,.cls-14,.cls-15,.cls-16,.cls-17,.cls-18,.cls-19,.cls-20,.cls-21,.cls-22,.cls-23,.cls-24,.cls-25,.cls-26,.cls-27,.cls-28,.cls-29,.cls-30,.cls-31,.cls-32,.cls-33,.cls-34,.cls-35,.cls-36,.cls-37,.cls-38,.cls-39,.cls-40,.cls-41,.cls-42,.cls-43,.cls-44,.cls-45,.cls-46,.cls-47,.cls-48,.cls-49,.cls-50,.cls-51,.cls-52,.cls-53,.cls-54,.cls-55,.cls-56,.cls-57,.cls-58,.cls-59,.cls-60,.cls-61,.cls-62,.cls-63,.cls-64,.cls-65,.cls-66,.cls-67,.cls-68,.cls-69,.cls-70,.cls-71,.cls-72,.cls-73,.cls-74,.cls-75,.cls-76,.cls-77,.cls-78,.cls-79,.cls-80,.cls-81,.cls-82,.cls-83,.cls-84,.cls-85,.cls-86,.cls-87,.cls-88,.cls-89,.cls-90,.cls-91,.cls-92,.cls-93,.cls-94,.cls-95,.cls-96,.cls-97,.cls-98,.cls-99{stroke-width:0px;}.cls-2{fill:url(#_무제_그라디언트_10-11);}.cls-3{fill:url(#_무제_그라디언트_10-19);}.cls-4{fill:url(#_무제_그라디언트_10-10);}.cls-5{fill:url(#_무제_그라디언트_10-18);}.cls-6{fill:url(#_무제_그라디언트_10-17);}.cls-7{fill:url(#_무제_그라디언트_10-20);}.cls-8{fill:url(#_무제_그라디언트_10-24);}.cls-9{fill:url(#_무제_그라디언트_10-21);}.cls-10{fill:url(#_무제_그라디언트_10-29);}.cls-11{fill:url(#_무제_그라디언트_10-22);}.cls-12{fill:url(#_무제_그라디언트_10-23);}.cls-13{fill:url(#_무제_그라디언트_10-15);}.cls-14{fill:url(#_무제_그라디언트_10-14);}.cls-15{fill:url(#_무제_그라디언트_10-13);}.cls-16{fill:url(#_무제_그라디언트_10-16);}.cls-17{fill:url(#_무제_그라디언트_10-26);}.cls-18{fill:url(#_무제_그라디언트_10-27);}.cls-19{fill:url(#_무제_그라디언트_10-25);}.cls-20{fill:url(#_무제_그라디언트_10-28);}.cls-21{fill:url(#_무제_그라디언트_10-31);}.cls-22{fill:url(#_무제_그라디언트_10-30);}.cls-23{fill:url(#_무제_그라디언트_17-30);}.cls-24{fill:url(#_무제_그라디언트_17-31);}.cls-25{fill:url(#_무제_그라디언트_17-20);}.cls-26{fill:url(#_무제_그라디언트_17-21);}.cls-27{fill:url(#_무제_그라디언트_17-23);}.cls-28{fill:url(#_무제_그라디언트_17-24);}.cls-29{fill:url(#_무제_그라디언트_17-22);}.cls-30{fill:url(#_무제_그라디언트_17-29);}.cls-31{fill:url(#_무제_그라디언트_17-27);}.cls-32{fill:url(#_무제_그라디언트_17-28);}.cls-33{fill:url(#_무제_그라디언트_17-25);}.cls-34{fill:url(#_무제_그라디언트_17-26);}.cls-35{fill:url(#_무제_그라디언트_17-12);}.cls-36{fill:url(#_무제_그라디언트_17-10);}.cls-37{fill:url(#_무제_그라디언트_17-13);}.cls-38{fill:url(#_무제_그라디언트_17-11);}.cls-39{fill:url(#_무제_그라디언트_17-18);}.cls-40{fill:url(#_무제_그라디언트_17-17);}.cls-41{fill:url(#_무제_그라디언트_17-14);}.cls-42{fill:url(#_무제_그라디언트_17-19);}.cls-43{fill:url(#_무제_그라디언트_17-15);}.cls-44{fill:url(#_무제_그라디언트_17-16);}.cls-45{fill:url(#_무제_그라디언트_25-29);}.cls-46{fill:url(#_무제_그라디언트_25-28);}.cls-47{fill:url(#_무제_그라디언트_25-17);}.cls-48{fill:url(#_무제_그라디언트_25-16);}.cls-49{fill:url(#_무제_그라디언트_25-13);}.cls-50{fill:url(#_무제_그라디언트_25-12);}.cls-51{fill:url(#_무제_그라디언트_25-15);}.cls-52{fill:url(#_무제_그라디언트_25-11);}.cls-53{fill:url(#_무제_그라디언트_25-10);}.cls-54{fill:url(#_무제_그라디언트_25-14);}.cls-55{fill:url(#_무제_그라디언트_25-19);}.cls-56{fill:url(#_무제_그라디언트_25-21);}.cls-57{fill:url(#_무제_그라디언트_25-26);}.cls-58{fill:url(#_무제_그라디언트_25-27);}.cls-59{fill:url(#_무제_그라디언트_25-20);}.cls-60{fill:url(#_무제_그라디언트_25-22);}.cls-61{fill:url(#_무제_그라디언트_25-23);}.cls-62{fill:url(#_무제_그라디언트_25-18);}.cls-63{fill:url(#_무제_그라디언트_25-24);}.cls-64{fill:url(#_무제_그라디언트_25-25);}.cls-65{fill:url(#_무제_그라디언트_25-30);}.cls-66{fill:url(#_무제_그라디언트_25-31);}.cls-67{fill:url(#_무제_그라디언트_17);}.cls-68{fill:url(#_무제_그라디언트_10);}.cls-69{fill:url(#_무제_그라디언트_25);}.cls-70{fill:url(#_무제_그라디언트_25-9);}.cls-71{fill:url(#_무제_그라디언트_25-8);}.cls-72{fill:url(#_무제_그라디언트_25-3);}.cls-73{fill:url(#_무제_그라디언트_25-2);}.cls-74{fill:url(#_무제_그라디언트_25-5);}.cls-75{fill:url(#_무제_그라디언트_25-7);}.cls-76{fill:url(#_무제_그라디언트_25-6);}.cls-77{fill:url(#_무제_그라디언트_25-4);}.cls-78{fill:url(#_무제_그라디언트_10-5);}.cls-79{fill:url(#_무제_그라디언트_10-6);}.cls-80{fill:url(#_무제_그라디언트_10-3);}.cls-81{fill:url(#_무제_그라디언트_10-2);}.cls-82{fill:url(#_무제_그라디언트_10-9);}.cls-83{fill:url(#_무제_그라디언트_10-7);}.cls-84{fill:url(#_무제_그라디언트_10-4);}.cls-85{fill:url(#_무제_그라디언트_10-8);}.cls-86{fill:url(#_무제_그라디언트_17-9);}.cls-87{fill:url(#_무제_그라디언트_17-7);}.cls-88{fill:url(#_무제_그라디언트_17-8);}.cls-89{fill:url(#_무제_그라디언트_17-6);}.cls-90{fill:url(#_무제_그라디언트_17-5);}.cls-91{fill:url(#_무제_그라디언트_17-4);}.cls-92{fill:url(#_무제_그라디언트_17-3);}.cls-93{fill:url(#_무제_그라디언트_17-2);}.cls-94{fill:#f97971;}.cls-95{fill:#f51d0f;}.cls-96{fill:#333;}.cls-97{fill:#fff;}.cls-98{fill:#fdd5d3;}.cls-99{fill:#fafafa;}</style><linearGradient id="_무제_그라디언트_10" x1="243.34" y1="229.43" x2="492.36" y2="229.43" gradientUnits="userSpaceOnUse"><stop offset=".45" stop-color="#f51d0f"/><stop offset=".55" stop-color="#c91408"/></linearGradient><linearGradient id="_무제_그라디언트_10-2" y1="228.55" y2="228.55" xlink:href="#_무제_그라디언트_10"/><linearGradient id="_무제_그라디언트_10-3" y1="227.68" y2="227.68" xlink:href="#_무제_그라디언트_10"/><linearGradient id="_무제_그라디언트_10-4" y1="226.8" y2="226.8" xlink:href="#_무제_그라디언트_10"/><linearGradient id="_무제_그라디언트_10-5" y1="225.92" y2="225.92" xlink:href="#_무제_그라디언트_10"/><linearGradient id="_무제_그라디언트_10-6" y1="225.04" y2="225.04" xlink:href="#_무제_그라디언트_10"/><linearGradient id="_무제_그라디언트_10-7" y1="224.16" y2="224.16" xlink:href="#_무제_그라디언트_10"/><linearGradient id="_무제_그라디언트_10-8" y1="223.28" y2="223.28" xlink:href="#_무제_그라디언트_10"/><linearGradient id="_무제_그라디언트_10-9" y1="222.4" y2="222.4" xlink:href="#_무제_그라디언트_10"/><linearGradient id="_무제_그라디언트_10-10" y1="221.52" y2="221.52" xlink:href="#_무제_그라디언트_10"/><linearGradient id="_무제_그라디언트_10-11" y1="220.65" y2="220.65" xlink:href="#_무제_그라디언트_10"/><linearGradient id="_무제_그라디언트_10-12" y1="219.77" y2="219.77" xlink:href="#_무제_그라디언트_10"/><linearGradient id="_무제_그라디언트_10-13" y1="218.89" y2="218.89" xlink:href="#_무제_그라디언트_10"/><linearGradient id="_무제_그라디언트_10-14" y1="218.01" y2="218.01" xlink:href="#_무제_그라디언트_10"/><linearGradient id="_무제_그라디언트_10-15" y1="217.13" y2="217.13" xlink:href="#_무제_그라디언트_10"/><linearGradient id="_무제_그라디언트_10-16" y1="216.25" y2="216.25" xlink:href="#_무제_그라디언트_10"/><linearGradient id="_무제_그라디언트_10-17" y1="215.37" y2="215.37" xlink:href="#_무제_그라디언트_10"/><linearGradient id="_무제_그라디언트_10-18" y1="214.49" y2="214.49" xlink:href="#_무제_그라디언트_10"/><linearGradient id="_무제_그라디언트_10-19" y1="213.62" y2="213.62" xlink:href="#_무제_그라디언트_10"/><linearGradient id="_무제_그라디언트_10-20" y1="212.74" y2="212.74" xlink:href="#_무제_그라디언트_10"/><linearGradient id="_무제_그라디언트_10-21" y1="211.86" y2="211.86" xlink:href="#_무제_그라디언트_10"/><linearGradient id="_무제_그라디언트_10-22" y1="210.98" y2="210.98" xlink:href="#_무제_그라디언트_10"/><linearGradient id="_무제_그라디언트_10-23" y1="210.1" y2="210.1" xlink:href="#_무제_그라디언트_10"/><linearGradient id="_무제_그라디언트_10-24" y1="209.22" y2="209.22" xlink:href="#_무제_그라디언트_10"/><linearGradient id="_무제_그라디언트_10-25" y1="208.34" y2="208.34" xlink:href="#_무제_그라디언트_10"/><linearGradient id="_무제_그라디언트_10-26" y1="207.46" y2="207.46" xlink:href="#_무제_그라디언트_10"/><linearGradient id="_무제_그라디언트_10-27" y1="206.59" y2="206.59" xlink:href="#_무제_그라디언트_10"/><linearGradient id="_무제_그라디언트_10-28" y1="205.71" y2="205.71" xlink:href="#_무제_그라디언트_10"/><linearGradient id="_무제_그라디언트_10-29" y1="204.83" y2="204.83" xlink:href="#_무제_그라디언트_10"/><linearGradient id="_무제_그라디언트_10-30" y1="203.95" y2="203.95" xlink:href="#_무제_그라디언트_10"/><linearGradient id="_무제_그라디언트_10-31" y1="203.07" y2="203.07" xlink:href="#_무제_그라디언트_10"/><linearGradient id="_무제_그라디언트_17" x1="243.34" y1="202.92" x2="492.36" y2="202.92" gradientUnits="userSpaceOnUse"><stop offset=".45" stop-color="#f97971"/><stop offset=".55" stop-color="#f7493e"/></linearGradient><linearGradient id="_무제_그라디언트_17-2" y1="202.05" y2="202.05" xlink:href="#_무제_그라디언트_17"/><linearGradient id="_무제_그라디언트_17-3" y1="201.17" y2="201.17" xlink:href="#_무제_그라디언트_17"/><linearGradient id="_무제_그라디언트_17-4" y1="200.29" y2="200.29" xlink:href="#_무제_그라디언트_17"/><linearGradient id="_무제_그라디언트_17-5" y1="199.41" y2="199.41" xlink:href="#_무제_그라디언트_17"/><linearGradient id="_무제_그라디언트_17-6" y1="198.53" y2="198.53" xlink:href="#_무제_그라디언트_17"/><linearGradient id="_무제_그라디언트_17-7" y1="197.65" y2="197.65" xlink:href="#_무제_그라디언트_17"/><linearGradient id="_무제_그라디언트_17-8" y1="196.77" y2="196.77" xlink:href="#_무제_그라디언트_17"/><linearGradient id="_무제_그라디언트_17-9" y1="195.89" y2="195.89" xlink:href="#_무제_그라디언트_17"/><linearGradient id="_무제_그라디언트_17-10" y1="195.02" y2="195.02" xlink:href="#_무제_그라디언트_17"/><linearGradient id="_무제_그라디언트_17-11" y1="194.14" y2="194.14" xlink:href="#_무제_그라디언트_17"/><linearGradient id="_무제_그라디언트_17-12" y1="193.26" y2="193.26" xlink:href="#_무제_그라디언트_17"/><linearGradient id="_무제_그라디언트_17-13" y1="192.38" y2="192.38" xlink:href="#_무제_그라디언트_17"/><linearGradient id="_무제_그라디언트_17-14" y1="191.5" y2="191.5" xlink:href="#_무제_그라디언트_17"/><linearGradient id="_무제_그라디언트_17-15" y1="190.62" y2="190.62" xlink:href="#_무제_그라디언트_17"/><linearGradient id="_무제_그라디언트_17-16" y1="189.74" y2="189.74" xlink:href="#_무제_그라디언트_17"/><linearGradient id="_무제_그라디언트_17-17" y1="188.86" y2="188.86" xlink:href="#_무제_그라디언트_17"/><linearGradient id="_무제_그라디언트_17-18" y1="187.99" y2="187.99" xlink:href="#_무제_그라디언트_17"/><linearGradient id="_무제_그라디언트_17-19" y1="187.11" y2="187.11" xlink:href="#_무제_그라디언트_17"/><linearGradient id="_무제_그라디언트_17-20" y1="186.23" y2="186.23" xlink:href="#_무제_그라디언트_17"/><linearGradient id="_무제_그라디언트_17-21" y1="185.35" y2="185.35" xlink:href="#_무제_그라디언트_17"/><linearGradient id="_무제_그라디언트_17-22" y1="184.47" y2="184.47" xlink:href="#_무제_그라디언트_17"/><linearGradient id="_무제_그라디언트_17-23" y1="183.59" y2="183.59" xlink:href="#_무제_그라디언트_17"/><linearGradient id="_무제_그라디언트_17-24" y1="182.71" y2="182.71" xlink:href="#_무제_그라디언트_17"/><linearGradient id="_무제_그라디언트_17-25" y1="181.83" y2="181.83" xlink:href="#_무제_그라디언트_17"/><linearGradient id="_무제_그라디언트_17-26" y1="180.96" y2="180.96" xlink:href="#_무제_그라디언트_17"/><linearGradient id="_무제_그라디언트_17-27" y1="180.08" y2="180.08" xlink:href="#_무제_그라디언트_17"/><linearGradient id="_무제_그라디언트_17-28" y1="179.2" y2="179.2" xlink:href="#_무제_그라디언트_17"/><linearGradient id="_무제_그라디언트_17-29" y1="178.32" y2="178.32" xlink:href="#_무제_그라디언트_17"/><linearGradient id="_무제_그라디언트_17-30" y1="177.44" y2="177.44" xlink:href="#_무제_그라디언트_17"/><linearGradient id="_무제_그라디언트_17-31" y1="176.56" y2="176.56" xlink:href="#_무제_그라디언트_17"/><linearGradient id="_무제_그라디언트_25" x1="243.34" y1="176.42" x2="492.36" y2="176.42" gradientUnits="userSpaceOnUse"><stop offset=".45" stop-color="#fdd5d3"/><stop offset=".55" stop-color="#fba7a2"/></linearGradient><linearGradient id="_무제_그라디언트_25-2" y1="175.54" y2="175.54" xlink:href="#_무제_그라디언트_25"/><linearGradient id="_무제_그라디언트_25-3" y1="174.66" y2="174.66" xlink:href="#_무제_그라디언트_25"/><linearGradient id="_무제_그라디언트_25-4" y1="173.78" y2="173.78" xlink:href="#_무제_그라디언트_25"/><linearGradient id="_무제_그라디언트_25-5" y1="172.9" y2="172.9" xlink:href="#_무제_그라디언트_25"/><linearGradient id="_무제_그라디언트_25-6" y1="172.02" y2="172.02" xlink:href="#_무제_그라디언트_25"/><linearGradient id="_무제_그라디언트_25-7" y1="171.14" y2="171.14" xlink:href="#_무제_그라디언트_25"/><linearGradient id="_무제_그라디언트_25-8" y1="170.27" y2="170.27" xlink:href="#_무제_그라디언트_25"/><linearGradient id="_무제_그라디언트_25-9" y1="169.39" y2="169.39" xlink:href="#_무제_그라디언트_25"/><linearGradient id="_무제_그라디언트_25-10" y1="168.51" y2="168.51" xlink:href="#_무제_그라디언트_25"/><linearGradient id="_무제_그라디언트_25-11" y1="167.63" y2="167.63" xlink:href="#_무제_그라디언트_25"/><linearGradient id="_무제_그라디언트_25-12" y1="166.75" y2="166.75" xlink:href="#_무제_그라디언트_25"/><linearGradient id="_무제_그라디언트_25-13" y1="165.87" y2="165.87" xlink:href="#_무제_그라디언트_25"/><linearGradient id="_무제_그라디언트_25-14" y1="164.99" y2="164.99" xlink:href="#_무제_그라디언트_25"/><linearGradient id="_무제_그라디언트_25-15" y1="164.11" y2="164.11" xlink:href="#_무제_그라디언트_25"/><linearGradient id="_무제_그라디언트_25-16" y1="163.24" y2="163.24" xlink:href="#_무제_그라디언트_25"/><linearGradient id="_무제_그라디언트_25-17" y1="162.36" y2="162.36" xlink:href="#_무제_그라디언트_25"/><linearGradient id="_무제_그라디언트_25-18" y1="161.48" y2="161.48" xlink:href="#_무제_그라디언트_25"/><linearGradient id="_무제_그라디언트_25-19" y1="160.6" y2="160.6" xlink:href="#_무제_그라디언트_25"/><linearGradient id="_무제_그라디언트_25-20" y1="159.72" y2="159.72" xlink:href="#_무제_그라디언트_25"/><linearGradient id="_무제_그라디언트_25-21" y1="158.84" y2="158.84" xlink:href="#_무제_그라디언트_25"/><linearGradient id="_무제_그라디언트_25-22" y1="157.96" y2="157.96" xlink:href="#_무제_그라디언트_25"/><linearGradient id="_무제_그라디언트_25-23" y1="157.08" y2="157.08" xlink:href="#_무제_그라디언트_25"/><linearGradient id="_무제_그라디언트_25-24" y1="156.21" y2="156.21" xlink:href="#_무제_그라디언트_25"/><linearGradient id="_무제_그라디언트_25-25" y1="155.33" y2="155.33" xlink:href="#_무제_그라디언트_25"/><linearGradient id="_무제_그라디언트_25-26" y1="154.45" y2="154.45" xlink:href="#_무제_그라디언트_25"/><linearGradient id="_무제_그라디언트_25-27" y1="153.57" y2="153.57" xlink:href="#_무제_그라디언트_25"/><linearGradient id="_무제_그라디언트_25-28" y1="152.69" y2="152.69" xlink:href="#_무제_그라디언트_25"/><linearGradient id="_무제_그라디언트_25-29" y1="151.81" y2="151.81" xlink:href="#_무제_그라디언트_25"/><linearGradient id="_무제_그라디언트_25-30" y1="150.93" y2="150.93" xlink:href="#_무제_그라디언트_25"/><linearGradient id="_무제_그라디언트_25-31" y1="150.05" y2="150.05" xlink:href="#_무제_그라디언트_25"/></defs><g id="_레이어_1-2"><rect class="cls-99" width="1164.83" height="377.73"/><path class="cls-68" d="M369.27,131.55c10.12-.23,20,2.93,28.61,9.53,20.89,16.03,41.7,32.18,62.45,48.4,7.38,5.77,14.77,11.58,21.63,17.94,15.01,13.92,12.58,31.46.45,43.36-6.86,6.73-14.61,12.6-22.18,18.57-19.43,15.33-38.91,30.58-58.5,45.7-15,11.58-31.74,15.45-50.02,9.53-5.16-1.67-10.3-4.31-14.61-7.6-26.18-20.07-52.16-40.42-78.11-60.79-6.03-4.73-11.06-10.43-13.73-17.82-3.55-9.83-2.35-19.16,4.95-26.64,7.04-7.22,14.76-13.84,22.63-20.15,19.53-15.65,39.3-30.99,59.01-46.41,12.6-9.86,22.78-13.6,37.41-13.62Z"/><path class="cls-81" d="M369.27,130.67c10.12-.23,20,2.93,28.61,9.53,20.89,16.03,41.7,32.18,62.45,48.4,7.38,5.77,14.77,11.58,21.63,17.94,15.01,13.92,12.58,31.46.45,43.36-6.86,6.73-14.61,12.6-22.18,18.57-19.43,15.33-38.91,30.58-58.5,45.7-15,11.58-31.74,15.45-50.02,9.53-5.16-1.67-10.3-4.31-14.61-7.6-26.18-20.07-52.16-40.42-78.11-60.79-6.03-4.73-11.06-10.43-13.73-17.82-3.55-9.83-2.35-19.16,4.95-26.64,7.04-7.22,14.76-13.84,22.63-20.15,19.53-15.65,39.3-30.99,59.01-46.41,12.6-9.86,22.78-13.6,37.41-13.62Z"/><path class="cls-80" d="M369.27,129.79c10.12-.23,20,2.93,28.61,9.53,20.89,16.03,41.7,32.18,62.45,48.4,7.38,5.77,14.77,11.58,21.63,17.94,15.01,13.92,12.58,31.46.45,43.36-6.86,6.73-14.61,12.6-22.18,18.57-19.43,15.33-38.91,30.58-58.5,45.7-15,11.58-31.74,15.45-50.02,9.53-5.16-1.67-10.3-4.31-14.61-7.6-26.18-20.07-52.16-40.42-78.11-60.79-6.03-4.73-11.06-10.43-13.73-17.82-3.55-9.83-2.35-19.16,4.95-26.64,7.04-7.22,14.76-13.84,22.63-20.15,19.53-15.65,39.3-30.99,59.01-46.41,12.6-9.86,22.78-13.6,37.41-13.62Z"/><path class="cls-84" d="M369.27,128.91c10.12-.23,20,2.93,28.61,9.53,20.89,16.03,41.7,32.18,62.45,48.4,7.38,5.77,14.77,11.58,21.63,17.94,15.01,13.92,12.58,31.46.45,43.36-6.86,6.73-14.61,12.6-22.18,18.57-19.43,15.33-38.91,30.58-58.5,45.7-15,11.58-31.74,15.45-50.02,9.53-5.16-1.67-10.3-4.31-14.61-7.6-26.18-20.07-52.16-40.42-78.11-60.79-6.03-4.73-11.06-10.43-13.73-17.82-3.55-9.83-2.35-19.16,4.95-26.64,7.04-7.22,14.76-13.84,22.63-20.15,19.53-15.65,39.3-30.99,59.01-46.41,12.6-9.86,22.78-13.6,37.41-13.62Z"/><path class="cls-78" d="M369.27,128.03c10.12-.23,20,2.93,28.61,9.53,20.89,16.03,41.7,32.18,62.45,48.4,7.38,5.77,14.77,11.58,21.63,17.94,15.01,13.92,12.58,31.46.45,43.36-6.86,6.73-14.61,12.6-22.18,18.57-19.43,15.33-38.91,30.58-58.5,45.7-15,11.58-31.74,15.45-50.02,9.53-5.16-1.67-10.3-4.31-14.61-7.6-26.18-20.07-52.16-40.42-78.11-60.79-6.03-4.73-11.06-10.43-13.73-17.82-3.55-9.83-2.35-19.16,4.95-26.64,7.04-7.22,14.76-13.84,22.63-20.15,19.53-15.65,39.3-30.99,59.01-46.41,12.6-9.86,22.78-13.6,37.41-13.62Z"/><path class="cls-79" d="M369.27,127.15c10.12-.23,20,2.93,28.61,9.53,20.89,16.03,41.7,32.18,62.45,48.4,7.38,5.77,14.77,11.58,21.63,17.94,15.01,13.92,12.58,31.46.45,43.36-6.86,6.73-14.61,12.6-22.18,18.57-19.43,15.33-38.91,30.58-58.5,45.7-15,11.58-31.74,15.45-50.02,9.53-5.16-1.67-10.3-4.31-14.61-7.6-26.18-20.07-52.16-40.42-78.11-60.79-6.03-4.73-11.06-10.43-13.73-17.82-3.55-9.83-2.35-19.16,4.95-26.64,7.04-7.22,14.76-13.84,22.63-20.15,19.53-15.65,39.3-30.99,59.01-46.41,12.6-9.86,22.78-13.6,37.41-13.62Z"/><path class="cls-83" d="M369.27,126.27c10.12-.23,20,2.93,28.61,9.53,20.89,16.03,41.7,32.18,62.45,48.4,7.38,5.77,14.77,11.58,21.63,17.94,15.01,13.92,12.58,31.46.45,43.36-6.86,6.73-14.61,12.6-22.18,18.57-19.43,15.33-38.91,30.58-58.5,45.7-15,11.58-31.74,15.45-50.02,9.53-5.16-1.67-10.3-4.31-14.61-7.6-26.18-20.07-52.16-40.42-78.11-60.79-6.03-4.73-11.06-10.43-13.73-17.82-3.55-9.83-2.35-19.16,4.95-26.64,7.04-7.22,14.76-13.84,22.63-20.15,19.53-15.65,39.3-30.99,59.01-46.41,12.6-9.86,22.78-13.6,37.41-13.62Z"/><path class="cls-85" d="M369.27,125.4c10.12-.23,20,2.93,28.61,9.53,20.89,16.03,41.7,32.18,62.45,48.4,7.38,5.77,14.77,11.58,21.63,17.94,15.01,13.92,12.58,31.46.45,43.36-6.86,6.73-14.61,12.6-22.18,18.57-19.43,15.33-38.91,30.58-58.5,45.7-15,11.58-31.74,15.45-50.02,9.53-5.16-1.67-10.3-4.31-14.61-7.6-26.18-20.07-52.16-40.42-78.11-60.79-6.03-4.73-11.06-10.43-13.73-17.82-3.55-9.83-2.35-19.16,4.95-26.64,7.04-7.22,14.76-13.84,22.63-20.15,19.53-15.65,39.3-30.99,59.01-46.41,12.6-9.86,22.78-13.6,37.41-13.62Z"/><path class="cls-82" d="M369.27,124.52c10.12-.23,20,2.93,28.61,9.53,20.89,16.03,41.7,32.18,62.45,48.4,7.38,5.77,14.77,11.58,21.63,17.94,15.01,13.92,12.58,31.46.45,43.36-6.86,6.73-14.61,12.6-22.18,18.57-19.43,15.33-38.91,30.58-58.5,45.7-15,11.58-31.74,15.45-50.02,9.53-5.16-1.67-10.3-4.31-14.61-7.6-26.18-20.07-52.16-40.42-78.11-60.79-6.03-4.73-11.06-10.43-13.73-17.82-3.55-9.83-2.35-19.16,4.95-26.64,7.04-7.22,14.76-13.84,22.63-20.15,19.53-15.65,39.3-30.99,59.01-46.41,12.6-9.86,22.78-13.6,37.41-13.62Z"/><path class="cls-4" d="M369.27,123.64c10.12-.23,20,2.93,28.61,9.53,20.89,16.03,41.7,32.18,62.45,48.4,7.38,5.77,14.77,11.58,21.63,17.94,15.01,13.92,12.58,31.46.45,43.36-6.86,6.73-14.61,12.6-22.18,18.57-19.43,15.33-38.91,30.58-58.5,45.7-15,11.58-31.74,15.45-50.02,9.53-5.16-1.67-10.3-4.31-14.61-7.6-26.18-20.07-52.16-40.42-78.11-60.79-6.03-4.73-11.06-10.43-13.73-17.82-3.55-9.83-2.35-19.16,4.95-26.64,7.04-7.22,14.76-13.84,22.63-20.15,19.53-15.65,39.3-30.99,59.01-46.41,12.6-9.86,22.78-13.6,37.41-13.62Z"/><path class="cls-2" d="M369.27,122.76c10.12-.23,20,2.93,28.61,9.53,20.89,16.03,41.7,32.18,62.45,48.4,7.38,5.77,14.77,11.58,21.63,17.94,15.01,13.92,12.58,31.46.45,43.36-6.86,6.73-14.61,12.6-22.18,18.57-19.43,15.33-38.91,30.58-58.5,45.7-15,11.58-31.74,15.45-50.02,9.53-5.16-1.67-10.3-4.31-14.61-7.6-26.18-20.07-52.16-40.42-78.11-60.79-6.03-4.73-11.06-10.43-13.73-17.82-3.55-9.83-2.35-19.16,4.95-26.64,7.04-7.22,14.76-13.84,22.63-20.15,19.53-15.65,39.3-30.99,59.01-46.41,12.6-9.86,22.78-13.6,37.41-13.62Z"/><path class="cls-1" d="M369.27,121.88c10.12-.23,20,2.93,28.61,9.53,20.89,16.03,41.7,32.18,62.45,48.4,7.38,5.77,14.77,11.58,21.63,17.94,15.01,13.92,12.58,31.46.45,43.36-6.86,6.73-14.61,12.6-22.18,18.57-19.43,15.33-38.91,30.58-58.5,45.7-15,11.58-31.74,15.45-50.02,9.53-5.16-1.67-10.3-4.31-14.61-7.6-26.18-20.07-52.16-40.42-78.11-60.79-6.03-4.73-11.06-10.43-13.73-17.82-3.55-9.83-2.35-19.16,4.95-26.64,7.04-7.22,14.76-13.84,22.63-20.15,19.53-15.65,39.3-30.99,59.01-46.41,12.6-9.86,22.78-13.6,37.41-13.62Z"/><path class="cls-15" d="M369.27,121c10.12-.23,20,2.93,28.61,9.53,20.89,16.03,41.7,32.18,62.45,48.4,7.38,5.77,14.77,11.58,21.63,17.94,15.01,13.92,12.58,31.46.45,43.36-6.86,6.73-14.61,12.6-22.18,18.57-19.43,15.33-38.91,30.58-58.5,45.7-15,11.58-31.74,15.45-50.02,9.53-5.16-1.67-10.3-4.31-14.61-7.6-26.18-20.07-52.16-40.42-78.11-60.79-6.03-4.73-11.06-10.43-13.73-17.82-3.55-9.83-2.35-19.16,4.95-26.64,7.04-7.22,14.76-13.84,22.63-20.15,19.53-15.65,39.3-30.99,59.01-46.41,12.6-9.86,22.78-13.6,37.41-13.62Z"/><path class="cls-14" d="M369.27,120.12c10.12-.23,20,2.93,28.61,9.53,20.89,16.03,41.7,32.18,62.45,48.4,7.38,5.77,14.77,11.58,21.63,17.94,15.01,13.92,12.58,31.46.45,43.36-6.86,6.73-14.61,12.6-22.18,18.57-19.43,15.33-38.91,30.58-58.5,45.7-15,11.58-31.74,15.45-50.02,9.53-5.16-1.67-10.3-4.31-14.61-7.6-26.18-20.07-52.16-40.42-78.11-60.79-6.03-4.73-11.06-10.43-13.73-17.82-3.55-9.83-2.35-19.16,4.95-26.64,7.04-7.22,14.76-13.84,22.63-20.15,19.53-15.65,39.3-30.99,59.01-46.41,12.6-9.86,22.78-13.6,37.41-13.62Z"/><path class="cls-13" d="M369.27,119.24c10.12-.23,20,2.93,28.61,9.53,20.89,16.03,41.7,32.18,62.45,48.4,7.38,5.77,14.77,11.58,21.63,17.94,15.01,13.92,12.58,31.46.45,43.36-6.86,6.73-14.61,12.6-22.18,18.57-19.43,15.33-38.91,30.58-58.5,45.7-15,11.58-31.74,15.45-50.02,9.53-5.16-1.67-10.3-4.31-14.61-7.6-26.18-20.07-52.16-40.42-78.11-60.79-6.03-4.73-11.06-10.43-13.73-17.82-3.55-9.83-2.35-19.16,4.95-26.64,7.04-7.22,14.76-13.84,22.63-20.15,19.53-15.65,39.3-30.99,59.01-46.41,12.6-9.86,22.78-13.6,37.41-13.62Z"/><path class="cls-16" d="M369.27,118.37c10.12-.23,20,2.93,28.61,9.53,20.89,16.03,41.7,32.18,62.45,48.4,7.38,5.77,14.77,11.58,21.63,17.94,15.01,13.92,12.58,31.46.45,43.36-6.86,6.73-14.61,12.6-22.18,18.57-19.43,15.33-38.91,30.58-58.5,45.7-15,11.58-31.74,15.45-50.02,9.53-5.16-1.67-10.3-4.31-14.61-7.6-26.18-20.07-52.16-40.42-78.11-60.79-6.03-4.73-11.06-10.43-13.73-17.82-3.55-9.83-2.35-19.16,4.95-26.64,7.04-7.22,14.76-13.84,22.63-20.15,19.53-15.65,39.3-30.99,59.01-46.41,12.6-9.86,22.78-13.6,37.41-13.62Z"/><path class="cls-6" d="M369.27,117.49c10.12-.23,20,2.93,28.61,9.53,20.89,16.03,41.7,32.18,62.45,48.4,7.38,5.77,14.77,11.58,21.63,17.94,15.01,13.92,12.58,31.46.45,43.36-6.86,6.73-14.61,12.6-22.18,18.57-19.43,15.33-38.91,30.58-58.5,45.7-15,11.58-31.74,15.45-50.02,9.53-5.16-1.67-10.3-4.31-14.61-7.6-26.18-20.07-52.16-40.42-78.11-60.79-6.03-4.73-11.06-10.43-13.73-17.82-3.55-9.83-2.35-19.16,4.95-26.64,7.04-7.22,14.76-13.84,22.63-20.15,19.53-15.65,39.3-30.99,59.01-46.41,12.6-9.86,22.78-13.6,37.41-13.62Z"/><path class="cls-5" d="M369.27,116.61c10.12-.23,20,2.93,28.61,9.53,20.89,16.03,41.7,32.18,62.45,48.4,7.38,5.77,14.77,11.58,21.63,17.94,15.01,13.92,12.58,31.46.45,43.36-6.86,6.73-14.61,12.6-22.18,18.57-19.43,15.33-38.91,30.58-58.5,45.7-15,11.58-31.74,15.45-50.02,9.53-5.16-1.67-10.3-4.31-14.61-7.6-26.18-20.07-52.16-40.42-78.11-60.79-6.03-4.73-11.06-10.43-13.73-17.82-3.55-9.83-2.35-19.16,4.95-26.64,7.04-7.22,14.76-13.84,22.63-20.15,19.53-15.65,39.3-30.99,59.01-46.41,12.6-9.86,22.78-13.6,37.41-13.62Z"/><path class="cls-3" d="M369.27,115.73c10.12-.23,20,2.93,28.61,9.53,20.89,16.03,41.7,32.18,62.45,48.4,7.38,5.77,14.77,11.58,21.63,17.94,15.01,13.92,12.58,31.46.45,43.36-6.86,6.73-14.61,12.6-22.18,18.57-19.43,15.33-38.91,30.58-58.5,45.7-15,11.58-31.74,15.45-50.02,9.53-5.16-1.67-10.3-4.31-14.61-7.6-26.18-20.07-52.16-40.42-78.11-60.79-6.03-4.73-11.06-10.43-13.73-17.82-3.55-9.83-2.35-19.16,4.95-26.64,7.04-7.22,14.76-13.84,22.63-20.15,19.53-15.65,39.3-30.99,59.01-46.41,12.6-9.86,22.78-13.6,37.41-13.62Z"/><path class="cls-7" d="M369.27,114.85c10.12-.23,20,2.93,28.61,9.53,20.89,16.03,41.7,32.18,62.45,48.4,7.38,5.77,14.77,11.58,21.63,17.94,15.01,13.92,12.58,31.46.45,43.36-6.86,6.73-14.61,12.6-22.18,18.57-19.43,15.33-38.91,30.58-58.5,45.7-15,11.58-31.74,15.45-50.02,9.53-5.16-1.67-10.3-4.31-14.61-7.6-26.18-20.07-52.16-40.42-78.11-60.79-6.03-4.73-11.06-10.43-13.73-17.82-3.55-9.83-2.35-19.16,4.95-26.64,7.04-7.22,14.76-13.84,22.63-20.15,19.53-15.65,39.3-30.99,59.01-46.41,12.6-9.86,22.78-13.6,37.41-13.62Z"/><path class="cls-9" d="M369.27,113.97c10.12-.23,20,2.93,28.61,9.53,20.89,16.03,41.7,32.18,62.45,48.4,7.38,5.77,14.77,11.58,21.63,17.94,15.01,13.92,12.58,31.46.45,43.36-6.86,6.73-14.61,12.6-22.18,18.57-19.43,15.33-38.91,30.58-58.5,45.7-15,11.58-31.74,15.45-50.02,9.53-5.16-1.67-10.3-4.31-14.61-7.6-26.18-20.07-52.16-40.42-78.11-60.79-6.03-4.73-11.06-10.43-13.73-17.82-3.55-9.83-2.35-19.16,4.95-26.64,7.04-7.22,14.76-13.84,22.63-20.15,19.53-15.65,39.3-30.99,59.01-46.41,12.6-9.86,22.78-13.6,37.41-13.62Z"/><path class="cls-11" d="M369.27,113.09c10.12-.23,20,2.93,28.61,9.53,20.89,16.03,41.7,32.18,62.45,48.4,7.38,5.77,14.77,11.58,21.63,17.94,15.01,13.92,12.58,31.46.45,43.36-6.86,6.73-14.61,12.6-22.18,18.57-19.43,15.33-38.91,30.58-58.5,45.7-15,11.58-31.74,15.45-50.02,9.53-5.16-1.67-10.3-4.31-14.61-7.6-26.18-20.07-52.16-40.42-78.11-60.79-6.03-4.73-11.06-10.43-13.73-17.82-3.55-9.83-2.35-19.16,4.95-26.64,7.04-7.22,14.76-13.84,22.63-20.15,19.53-15.65,39.3-30.99,59.01-46.41,12.6-9.86,22.78-13.6,37.41-13.62Z"/><path class="cls-12" d="M369.27,112.21c10.12-.23,20,2.93,28.61,9.53,20.89,16.03,41.7,32.18,62.45,48.4,7.38,5.77,14.77,11.58,21.63,17.94,15.01,13.92,12.58,31.46.45,43.36-6.86,6.73-14.61,12.6-22.18,18.57-19.43,15.33-38.91,30.58-58.5,45.7-15,11.58-31.74,15.45-50.02,9.53-5.16-1.67-10.3-4.31-14.61-7.6-26.18-20.07-52.16-40.42-78.11-60.79-6.03-4.73-11.06-10.43-13.73-17.82-3.55-9.83-2.35-19.16,4.95-26.64,7.04-7.22,14.76-13.84,22.63-20.15,19.53-15.65,39.3-30.99,59.01-46.41,12.6-9.86,22.78-13.6,37.41-13.62Z"/><path class="cls-8" d="M369.27,111.34c10.12-.23,20,2.93,28.61,9.53,20.89,16.03,41.7,32.18,62.45,48.4,7.38,5.77,14.77,11.58,21.63,17.94,15.01,13.92,12.58,31.46.45,43.36-6.86,6.73-14.61,12.6-22.18,18.57-19.43,15.33-38.91,30.58-58.5,45.7-15,11.58-31.74,15.45-50.02,9.53-5.16-1.67-10.3-4.31-14.61-7.6-26.18-20.07-52.16-40.42-78.11-60.79-6.03-4.73-11.06-10.43-13.73-17.82-3.55-9.83-2.35-19.16,4.95-26.64,7.04-7.22,14.76-13.84,22.63-20.15,19.53-15.65,39.3-30.99,59.01-46.41,12.6-9.86,22.78-13.6,37.41-13.62Z"/><path class="cls-19" d="M369.27,110.46c10.12-.23,20,2.93,28.61,9.53,20.89,16.03,41.7,32.18,62.45,48.4,7.38,5.77,14.77,11.58,21.63,17.94,15.01,13.92,12.58,31.46.45,43.36-6.86,6.73-14.61,12.6-22.18,18.57-19.43,15.33-38.91,30.58-58.5,45.7-15,11.58-31.74,15.45-50.02,9.53-5.16-1.67-10.3-4.31-14.61-7.6-26.18-20.07-52.16-40.42-78.11-60.79-6.03-4.73-11.06-10.43-13.73-17.82-3.55-9.83-2.35-19.16,4.95-26.64,7.04-7.22,14.76-13.84,22.63-20.15,19.53-15.65,39.3-30.99,59.01-46.41,12.6-9.86,22.78-13.6,37.41-13.62Z"/><path class="cls-17" d="M369.27,109.58c10.12-.23,20,2.93,28.61,9.53,20.89,16.03,41.7,32.18,62.45,48.4,7.38,5.77,14.77,11.58,21.63,17.94,15.01,13.92,12.58,31.46.45,43.36-6.86,6.73-14.61,12.6-22.18,18.57-19.43,15.33-38.91,30.58-58.5,45.7-15,11.58-31.74,15.45-50.02,9.53-5.16-1.67-10.3-4.31-14.61-7.6-26.18-20.07-52.16-40.42-78.11-60.79-6.03-4.73-11.06-10.43-13.73-17.82-3.55-9.83-2.35-19.16,4.95-26.64,7.04-7.22,14.76-13.84,22.63-20.15,19.53-15.65,39.3-30.99,59.01-46.41,12.6-9.86,22.78-13.6,37.41-13.62Z"/><path class="cls-18" d="M369.27,108.7c10.12-.23,20,2.93,28.61,9.53,20.89,16.03,41.7,32.18,62.45,48.4,7.38,5.77,14.77,11.58,21.63,17.94,15.01,13.92,12.58,31.46.45,43.36-6.86,6.73-14.61,12.6-22.18,18.57-19.43,15.33-38.91,30.58-58.5,45.7-15,11.58-31.74,15.45-50.02,9.53-5.16-1.67-10.3-4.31-14.61-7.6-26.18-20.07-52.16-40.42-78.11-60.79-6.03-4.73-11.06-10.43-13.73-17.82-3.55-9.83-2.35-19.16,4.95-26.64,7.04-7.22,14.76-13.84,22.63-20.15,19.53-15.65,39.3-30.99,59.01-46.41,12.6-9.86,22.78-13.6,37.41-13.62Z"/><path class="cls-20" d="M369.27,107.82c10.12-.23,20,2.93,28.61,9.53,20.89,16.03,41.7,32.18,62.45,48.4,7.38,5.77,14.77,11.58,21.63,17.94,15.01,13.92,12.58,31.46.45,43.36-6.86,6.73-14.61,12.6-22.18,18.57-19.43,15.33-38.91,30.58-58.5,45.7-15,11.58-31.74,15.45-50.02,9.53-5.16-1.67-10.3-4.31-14.61-7.6-26.18-20.07-52.16-40.42-78.11-60.79-6.03-4.73-11.06-10.43-13.73-17.82-3.55-9.83-2.35-19.16,4.95-26.64,7.04-7.22,14.76-13.84,22.63-20.15,19.53-15.65,39.3-30.99,59.01-46.41,12.6-9.86,22.78-13.6,37.41-13.62Z"/><path class="cls-10" d="M369.27,106.94c10.12-.23,20,2.93,28.61,9.53,20.89,16.03,41.7,32.18,62.45,48.4,7.38,5.77,14.77,11.58,21.63,17.94,15.01,13.92,12.58,31.46.45,43.36-6.86,6.73-14.61,12.6-22.18,18.57-19.43,15.33-38.91,30.58-58.5,45.7-15,11.58-31.74,15.45-50.02,9.53-5.16-1.67-10.3-4.31-14.61-7.6-26.18-20.07-52.16-40.42-78.11-60.79-6.03-4.73-11.06-10.43-13.73-17.82-3.55-9.83-2.35-19.16,4.95-26.64,7.04-7.22,14.76-13.84,22.63-20.15,19.53-15.65,39.3-30.99,59.01-46.41,12.6-9.86,22.78-13.6,37.41-13.62Z"/><path class="cls-22" d="M369.27,106.06c10.12-.23,20,2.93,28.61,9.53,20.89,16.03,41.7,32.18,62.45,48.4,7.38,5.77,14.77,11.58,21.63,17.94,15.01,13.92,12.58,31.46.45,43.36-6.86,6.73-14.61,12.6-22.18,18.57-19.43,15.33-38.91,30.58-58.5,45.7-15,11.58-31.74,15.45-50.02,9.53-5.16-1.67-10.3-4.31-14.61-7.6-26.18-20.07-52.16-40.42-78.11-60.79-6.03-4.73-11.06-10.43-13.73-17.82-3.55-9.83-2.35-19.16,4.95-26.64,7.04-7.22,14.76-13.84,22.63-20.15,19.53-15.65,39.3-30.99,59.01-46.41,12.6-9.86,22.78-13.6,37.41-13.62Z"/><path class="cls-21" d="M369.27,105.18c10.12-.23,20,2.93,28.61,9.53,20.89,16.03,41.7,32.18,62.45,48.4,7.38,5.77,14.77,11.58,21.63,17.94,15.01,13.92,12.58,31.46.45,43.36-6.86,6.73-14.61,12.6-22.18,18.57-19.43,15.33-38.91,30.58-58.5,45.7-15,11.58-31.74,15.45-50.02,9.53-5.16-1.67-10.3-4.31-14.61-7.6-26.18-20.07-52.16-40.42-78.11-60.79-6.03-4.73-11.06-10.43-13.73-17.82-3.55-9.83-2.35-19.16,4.95-26.64,7.04-7.22,14.76-13.84,22.63-20.15,19.53-15.65,39.3-30.99,59.01-46.41,12.6-9.86,22.78-13.6,37.41-13.62Z"/><path class="cls-67" d="M369.27,105.04c10.12-.23,20,2.93,28.61,9.53,20.89,16.03,41.7,32.18,62.45,48.4,7.38,5.77,14.77,11.58,21.63,17.94,15.01,13.92,12.58,31.46.45,43.36-6.86,6.73-14.61,12.6-22.18,18.57-19.43,15.33-38.91,30.58-58.5,45.7-15,11.58-31.74,15.45-50.02,9.53-5.16-1.67-10.3-4.31-14.61-7.6-26.18-20.07-52.16-40.42-78.11-60.79-6.03-4.73-11.06-10.43-13.73-17.82-3.55-9.83-2.35-19.16,4.95-26.64,7.04-7.22,14.76-13.84,22.63-20.15,19.53-15.65,39.3-30.99,59.01-46.41,12.6-9.86,22.78-13.6,37.41-13.62Z"/><path class="cls-93" d="M369.27,104.16c10.12-.23,20,2.93,28.61,9.53,20.89,16.03,41.7,32.18,62.45,48.4,7.38,5.77,14.77,11.58,21.63,17.94,15.01,13.92,12.58,31.46.45,43.36-6.86,6.73-14.61,12.6-22.18,18.57-19.43,15.33-38.91,30.58-58.5,45.7-15,11.58-31.74,15.45-50.02,9.53-5.16-1.67-10.3-4.31-14.61-7.6-26.18-20.07-52.16-40.42-78.11-60.79-6.03-4.73-11.06-10.43-13.73-17.82-3.55-9.83-2.35-19.16,4.95-26.64,7.04-7.22,14.76-13.84,22.63-20.15,19.53-15.65,39.3-30.99,59.01-46.41,12.6-9.86,22.78-13.6,37.41-13.62Z"/><path class="cls-92" d="M369.27,103.28c10.12-.23,20,2.93,28.61,9.53,20.89,16.03,41.7,32.18,62.45,48.4,7.38,5.77,14.77,11.58,21.63,17.94,15.01,13.92,12.58,31.46.45,43.36-6.86,6.73-14.61,12.6-22.18,18.57-19.43,15.33-38.91,30.58-58.5,45.7-15,11.58-31.74,15.45-50.02,9.53-5.16-1.67-10.3-4.31-14.61-7.6-26.18-20.07-52.16-40.42-78.11-60.79-6.03-4.73-11.06-10.43-13.73-17.82-3.55-9.83-2.35-19.16,4.95-26.64,7.04-7.22,14.76-13.84,22.63-20.15,19.53-15.65,39.3-30.99,59.01-46.41,12.6-9.86,22.78-13.6,37.41-13.62Z"/><path class="cls-91" d="M369.27,102.4c10.12-.23,20,2.93,28.61,9.53,20.89,16.03,41.7,32.18,62.45,48.4,7.38,5.77,14.77,11.58,21.63,17.94,15.01,13.92,12.58,31.46.45,43.36-6.86,6.73-14.61,12.6-22.18,18.57-19.43,15.33-38.91,30.58-58.5,45.7-15,11.58-31.74,15.45-50.02,9.53-5.16-1.67-10.3-4.31-14.61-7.6-26.18-20.07-52.16-40.42-78.11-60.79-6.03-4.73-11.06-10.43-13.73-17.82-3.55-9.83-2.35-19.16,4.95-26.64,7.04-7.22,14.76-13.84,22.63-20.15,19.53-15.65,39.3-30.99,59.01-46.41,12.6-9.86,22.78-13.6,37.41-13.62Z"/><path class="cls-90" d="M369.27,101.52c10.12-.23,20,2.93,28.61,9.53,20.89,16.03,41.7,32.18,62.45,48.4,7.38,5.77,14.77,11.58,21.63,17.94,15.01,13.92,12.58,31.46.45,43.36-6.86,6.73-14.61,12.6-22.18,18.57-19.43,15.33-38.91,30.58-58.5,45.7-15,11.58-31.74,15.45-50.02,9.53-5.16-1.67-10.3-4.31-14.61-7.6-26.18-20.07-52.16-40.42-78.11-60.79-6.03-4.73-11.06-10.43-13.73-17.82-3.55-9.83-2.35-19.16,4.95-26.64,7.04-7.22,14.76-13.84,22.63-20.15,19.53-15.65,39.3-30.99,59.01-46.41,12.6-9.86,22.78-13.6,37.41-13.62Z"/><path class="cls-89" d="M369.27,100.64c10.12-.23,20,2.93,28.61,9.53,20.89,16.03,41.7,32.18,62.45,48.4,7.38,5.77,14.77,11.58,21.63,17.94,15.01,13.92,12.58,31.46.45,43.36-6.86,6.73-14.61,12.6-22.18,18.57-19.43,15.33-38.91,30.58-58.5,45.7-15,11.58-31.74,15.45-50.02,9.53-5.16-1.67-10.3-4.31-14.61-7.6-26.18-20.07-52.16-40.42-78.11-60.79-6.03-4.73-11.06-10.43-13.73-17.82-3.55-9.83-2.35-19.16,4.95-26.64,7.04-7.22,14.76-13.84,22.63-20.15,19.53-15.65,39.3-30.99,59.01-46.41,12.6-9.86,22.78-13.6,37.41-13.62Z"/><path class="cls-87" d="M369.27,99.77c10.12-.23,20,2.93,28.61,9.53,20.89,16.03,41.7,32.18,62.45,48.4,7.38,5.77,14.77,11.58,21.63,17.94,15.01,13.92,12.58,31.46.45,43.36-6.86,6.73-14.61,12.6-22.18,18.57-19.43,15.33-38.91,30.58-58.5,45.7-15,11.58-31.74,15.45-50.02,9.53-5.16-1.67-10.3-4.31-14.61-7.6-26.18-20.07-52.16-40.42-78.11-60.79-6.03-4.73-11.06-10.43-13.73-17.82-3.55-9.83-2.35-19.16,4.95-26.64,7.04-7.22,14.76-13.84,22.63-20.15,19.53-15.65,39.3-30.99,59.01-46.41,12.6-9.86,22.78-13.6,37.41-13.62Z"/><path class="cls-88" d="M369.27,98.89c10.12-.23,20,2.93,28.61,9.53,20.89,16.03,41.7,32.18,62.45,48.4,7.38,5.77,14.77,11.58,21.63,17.94,15.01,13.92,12.58,31.46.45,43.36-6.86,6.73-14.61,12.6-22.18,18.57-19.43,15.33-38.91,30.58-58.5,45.7-15,11.58-31.74,15.45-50.02,9.53-5.16-1.67-10.3-4.31-14.61-7.6-26.18-20.07-52.16-40.42-78.11-60.79-6.03-4.73-11.06-10.43-13.73-17.82-3.55-9.83-2.35-19.16,4.95-26.64,7.04-7.22,14.76-13.84,22.63-20.15,19.53-15.65,39.3-30.99,59.01-46.41,12.6-9.86,22.78-13.6,37.41-13.62Z"/><path class="cls-86" d="M369.27,98.01c10.12-.23,20,2.93,28.61,9.53,20.89,16.03,41.7,32.18,62.45,48.4,7.38,5.77,14.77,11.58,21.63,17.94,15.01,13.92,12.58,31.46.45,43.36-6.86,6.73-14.61,12.6-22.18,18.57-19.43,15.33-38.91,30.58-58.5,45.7-15,11.58-31.74,15.45-50.02,9.53-5.16-1.67-10.3-4.31-14.61-7.6-26.18-20.07-52.16-40.42-78.11-60.79-6.03-4.73-11.06-10.43-13.73-17.82-3.55-9.83-2.35-19.16,4.95-26.64,7.04-7.22,14.76-13.84,22.63-20.15,19.53-15.65,39.3-30.99,59.01-46.41,12.6-9.86,22.78-13.6,37.41-13.62Z"/><path class="cls-36" d="M369.27,97.13c10.12-.23,20,2.93,28.61,9.53,20.89,16.03,41.7,32.18,62.45,48.4,7.38,5.77,14.77,11.58,21.63,17.94,15.01,13.92,12.58,31.46.45,43.36-6.86,6.73-14.61,12.6-22.18,18.57-19.43,15.33-38.91,30.58-58.5,45.7-15,11.58-31.74,15.45-50.02,9.53-5.16-1.67-10.3-4.31-14.61-7.6-26.18-20.07-52.16-40.42-78.11-60.79-6.03-4.73-11.06-10.43-13.73-17.82-3.55-9.83-2.35-19.16,4.95-26.64,7.04-7.22,14.76-13.84,22.63-20.15,19.53-15.65,39.3-30.99,59.01-46.41,12.6-9.86,22.78-13.6,37.41-13.62Z"/><path class="cls-38" d="M369.27,96.25c10.12-.23,20,2.93,28.61,9.53,20.89,16.03,41.7,32.18,62.45,48.4,7.38,5.77,14.77,11.58,21.63,17.94,15.01,13.92,12.58,31.46.45,43.36-6.86,6.73-14.61,12.6-22.18,18.57-19.43,15.33-38.91,30.58-58.5,45.7-15,11.58-31.74,15.45-50.02,9.53-5.16-1.67-10.3-4.31-14.61-7.6-26.18-20.07-52.16-40.42-78.11-60.79-6.03-4.73-11.06-10.43-13.73-17.82-3.55-9.83-2.35-19.16,4.95-26.64,7.04-7.22,14.76-13.84,22.63-20.15,19.53-15.65,39.3-30.99,59.01-46.41,12.6-9.86,22.78-13.6,37.41-13.62Z"/><path class="cls-35" d="M369.27,95.37c10.12-.23,20,2.93,28.61,9.53,20.89,16.03,41.7,32.18,62.45,48.4,7.38,5.77,14.77,11.58,21.63,17.94,15.01,13.92,12.58,31.46.45,43.36-6.86,6.73-14.61,12.6-22.18,18.57-19.43,15.33-38.91,30.58-58.5,45.7-15,11.58-31.74,15.45-50.02,9.53-5.16-1.67-10.3-4.31-14.61-7.6-26.18-20.07-52.16-40.42-78.11-60.79-6.03-4.73-11.06-10.43-13.73-17.82-3.55-9.83-2.35-19.16,4.95-26.64,7.04-7.22,14.76-13.84,22.63-20.15,19.53-15.65,39.3-30.99,59.01-46.41,12.6-9.86,22.78-13.6,37.41-13.62Z"/><path class="cls-37" d="M369.27,94.49c10.12-.23,20,2.93,28.61,9.53,20.89,16.03,41.7,32.18,62.45,48.4,7.38,5.77,14.77,11.58,21.63,17.94,15.01,13.92,12.58,31.46.45,43.36-6.86,6.73-14.61,12.6-22.18,18.57-19.43,15.33-38.91,30.58-58.5,45.7-15,11.58-31.74,15.45-50.02,9.53-5.16-1.67-10.3-4.31-14.61-7.6-26.18-20.07-52.16-40.42-78.11-60.79-6.03-4.73-11.06-10.43-13.73-17.82-3.55-9.83-2.35-19.16,4.95-26.64,7.04-7.22,14.76-13.84,22.63-20.15,19.53-15.65,39.3-30.99,59.01-46.41,12.6-9.86,22.78-13.6,37.41-13.62Z"/><path class="cls-41" d="M369.27,93.61c10.12-.23,20,2.93,28.61,9.53,20.89,16.03,41.7,32.18,62.45,48.4,7.38,5.77,14.77,11.58,21.63,17.94,15.01,13.92,12.58,31.46.45,43.36-6.86,6.73-14.61,12.6-22.18,18.57-19.43,15.33-38.91,30.58-58.5,45.7-15,11.58-31.74,15.45-50.02,9.53-5.16-1.67-10.3-4.31-14.61-7.6-26.18-20.07-52.16-40.42-78.11-60.79-6.03-4.73-11.06-10.43-13.73-17.82-3.55-9.83-2.35-19.16,4.95-26.64,7.04-7.22,14.76-13.84,22.63-20.15,19.53-15.65,39.3-30.99,59.01-46.41,12.6-9.86,22.78-13.6,37.41-13.62Z"/><path class="cls-43" d="M369.27,92.74c10.12-.23,20,2.93,28.61,9.53,20.89,16.03,41.7,32.18,62.45,48.4,7.38,5.77,14.77,11.58,21.63,17.94,15.01,13.92,12.58,31.46.45,43.36-6.86,6.73-14.61,12.6-22.18,18.57-19.43,15.33-38.91,30.58-58.5,45.7-15,11.58-31.74,15.45-50.02,9.53-5.16-1.67-10.3-4.31-14.61-7.6-26.18-20.07-52.16-40.42-78.11-60.79-6.03-4.73-11.06-10.43-13.73-17.82-3.55-9.83-2.35-19.16,4.95-26.64,7.04-7.22,14.76-13.84,22.63-20.15,19.53-15.65,39.3-30.99,59.01-46.41,12.6-9.86,22.78-13.6,37.41-13.62Z"/><path class="cls-44" d="M369.27,91.86c10.12-.23,20,2.93,28.61,9.53,20.89,16.03,41.7,32.18,62.45,48.4,7.38,5.77,14.77,11.58,21.63,17.94,15.01,13.92,12.58,31.46.45,43.36-6.86,6.73-14.61,12.6-22.18,18.57-19.43,15.33-38.91,30.58-58.5,45.7-15,11.58-31.74,15.45-50.02,9.53-5.16-1.67-10.3-4.31-14.61-7.6-26.18-20.07-52.16-40.42-78.11-60.79-6.03-4.73-11.06-10.43-13.73-17.82-3.55-9.83-2.35-19.16,4.95-26.64,7.04-7.22,14.76-13.84,22.63-20.15,19.53-15.65,39.3-30.99,59.01-46.41,12.6-9.86,22.78-13.6,37.41-13.62Z"/><path class="cls-40" d="M369.27,90.98c10.12-.23,20,2.93,28.61,9.53,20.89,16.03,41.7,32.18,62.45,48.4,7.38,5.77,14.77,11.58,21.63,17.94,15.01,13.92,12.58,31.46.45,43.36-6.86,6.73-14.61,12.6-22.18,18.57-19.43,15.33-38.91,30.58-58.5,45.7-15,11.58-31.74,15.45-50.02,9.53-5.16-1.67-10.3-4.31-14.61-7.6-26.18-20.07-52.16-40.42-78.11-60.79-6.03-4.73-11.06-10.43-13.73-17.82-3.55-9.83-2.35-19.16,4.95-26.64,7.04-7.22,14.76-13.84,22.63-20.15,19.53-15.65,39.3-30.99,59.01-46.41,12.6-9.86,22.78-13.6,37.41-13.62Z"/><path class="cls-39" d="M369.27,90.1c10.12-.23,20,2.93,28.61,9.53,20.89,16.03,41.7,32.18,62.45,48.4,7.38,5.77,14.77,11.58,21.63,17.94,15.01,13.92,12.58,31.46.45,43.36-6.86,6.73-14.61,12.6-22.18,18.57-19.43,15.33-38.91,30.58-58.5,45.7-15,11.58-31.74,15.45-50.02,9.53-5.16-1.67-10.3-4.31-14.61-7.6-26.18-20.07-52.16-40.42-78.11-60.79-6.03-4.73-11.06-10.43-13.73-17.82-3.55-9.83-2.35-19.16,4.95-26.64,7.04-7.22,14.76-13.84,22.63-20.15,19.53-15.65,39.3-30.99,59.01-46.41,12.6-9.86,22.78-13.6,37.41-13.62Z"/><path class="cls-42" d="M369.27,89.22c10.12-.23,20,2.93,28.61,9.53,20.89,16.03,41.7,32.18,62.45,48.4,7.38,5.77,14.77,11.58,21.63,17.94,15.01,13.92,12.58,31.46.45,43.36-6.86,6.73-14.61,12.6-22.18,18.57-19.43,15.33-38.91,30.58-58.5,45.7-15,11.58-31.74,15.45-50.02,9.53-5.16-1.67-10.3-4.31-14.61-7.6-26.18-20.07-52.16-40.42-78.11-60.79-6.03-4.73-11.06-10.43-13.73-17.82-3.55-9.83-2.35-19.16,4.95-26.64,7.04-7.22,14.76-13.84,22.63-20.15,19.53-15.65,39.3-30.99,59.01-46.41,12.6-9.86,22.78-13.6,37.41-13.62Z"/><path class="cls-25" d="M369.27,88.34c10.12-.23,20,2.93,28.61,9.53,20.89,16.03,41.7,32.18,62.45,48.4,7.38,5.77,14.77,11.58,21.63,17.94,15.01,13.92,12.58,31.46.45,43.36-6.86,6.73-14.61,12.6-22.18,18.57-19.43,15.33-38.91,30.58-58.5,45.7-15,11.58-31.74,15.45-50.02,9.53-5.16-1.67-10.3-4.31-14.61-7.6-26.18-20.07-52.16-40.42-78.11-60.79-6.03-4.73-11.06-10.43-13.73-17.82-3.55-9.83-2.35-19.16,4.95-26.64,7.04-7.22,14.76-13.84,22.63-20.15,19.53-15.65,39.3-30.99,59.01-46.41,12.6-9.86,22.78-13.6,37.41-13.62Z"/><path class="cls-26" d="M369.27,87.46c10.12-.23,20,2.93,28.61,9.53,20.89,16.03,41.7,32.18,62.45,48.4,7.38,5.77,14.77,11.58,21.63,17.94,15.01,13.92,12.58,31.46.45,43.36-6.86,6.73-14.61,12.6-22.18,18.57-19.43,15.33-38.91,30.58-58.5,45.7-15,11.58-31.74,15.45-50.02,9.53-5.16-1.67-10.3-4.31-14.61-7.6-26.18-20.07-52.16-40.42-78.11-60.79-6.03-4.73-11.06-10.43-13.73-17.82-3.55-9.83-2.35-19.16,4.95-26.64,7.04-7.22,14.76-13.84,22.63-20.15,19.53-15.65,39.3-30.99,59.01-46.41,12.6-9.86,22.78-13.6,37.41-13.62Z"/><path class="cls-29" d="M369.27,86.58c10.12-.23,20,2.93,28.61,9.53,20.89,16.03,41.7,32.18,62.45,48.4,7.38,5.77,14.77,11.58,21.63,17.94,15.01,13.92,12.58,31.46.45,43.36-6.86,6.73-14.61,12.6-22.18,18.57-19.43,15.33-38.91,30.58-58.5,45.7-15,11.58-31.74,15.45-50.02,9.53-5.16-1.67-10.3-4.31-14.61-7.6-26.18-20.07-52.16-40.42-78.11-60.79-6.03-4.73-11.06-10.43-13.73-17.82-3.55-9.83-2.35-19.16,4.95-26.64,7.04-7.22,14.76-13.84,22.63-20.15,19.53-15.65,39.3-30.99,59.01-46.41,12.6-9.86,22.78-13.6,37.41-13.62Z"/><path class="cls-27" d="M369.27,85.71c10.12-.23,20,2.93,28.61,9.53,20.89,16.03,41.7,32.18,62.45,48.4,7.38,5.77,14.77,11.58,21.63,17.94,15.01,13.92,12.58,31.46.45,43.36-6.86,6.73-14.61,12.6-22.18,18.57-19.43,15.33-38.91,30.58-58.5,45.7-15,11.58-31.74,15.45-50.02,9.53-5.16-1.67-10.3-4.31-14.61-7.6-26.18-20.07-52.16-40.42-78.11-60.79-6.03-4.73-11.06-10.43-13.73-17.82-3.55-9.83-2.35-19.16,4.95-26.64,7.04-7.22,14.76-13.84,22.63-20.15,19.53-15.65,39.3-30.99,59.01-46.41,12.6-9.86,22.78-13.6,37.41-13.62Z"/><path class="cls-28" d="M369.27,84.83c10.12-.23,20,2.93,28.61,9.53,20.89,16.03,41.7,32.18,62.45,48.4,7.38,5.77,14.77,11.58,21.63,17.94,15.01,13.92,12.58,31.46.45,43.36-6.86,6.73-14.61,12.6-22.18,18.57-19.43,15.33-38.91,30.58-58.5,45.7-15,11.58-31.74,15.45-50.02,9.53-5.16-1.67-10.3-4.31-14.61-7.6-26.18-20.07-52.16-40.42-78.11-60.79-6.03-4.73-11.06-10.43-13.73-17.82-3.55-9.83-2.35-19.16,4.95-26.64,7.04-7.22,14.76-13.84,22.63-20.15,19.53-15.65,39.3-30.99,59.01-46.41,12.6-9.86,22.78-13.6,37.41-13.62Z"/><path class="cls-33" d="M369.27,83.95c10.12-.23,20,2.93,28.61,9.53,20.89,16.03,41.7,32.18,62.45,48.4,7.38,5.77,14.77,11.58,21.63,17.94,15.01,13.92,12.58,31.46.45,43.36-6.86,6.73-14.61,12.6-22.18,18.57-19.43,15.33-38.91,30.58-58.5,45.7-15,11.58-31.74,15.45-50.02,9.53-5.16-1.67-10.3-4.31-14.61-7.6-26.18-20.07-52.16-40.42-78.11-60.79-6.03-4.73-11.06-10.43-13.73-17.82-3.55-9.83-2.35-19.16,4.95-26.64,7.04-7.22,14.76-13.84,22.63-20.15,19.53-15.65,39.3-30.99,59.01-46.41,12.6-9.86,22.78-13.6,37.41-13.62Z"/><path class="cls-34" d="M369.27,83.07c10.12-.23,20,2.93,28.61,9.53,20.89,16.03,41.7,32.18,62.45,48.4,7.38,5.77,14.77,11.58,21.63,17.94,15.01,13.92,12.58,31.46.45,43.36-6.86,6.73-14.61,12.6-22.18,18.57-19.43,15.33-38.91,30.58-58.5,45.7-15,11.58-31.74,15.45-50.02,9.53-5.16-1.67-10.3-4.31-14.61-7.6-26.18-20.07-52.16-40.42-78.11-60.79-6.03-4.73-11.06-10.43-13.73-17.82-3.55-9.83-2.35-19.16,4.95-26.64,7.04-7.22,14.76-13.84,22.63-20.15,19.53-15.65,39.3-30.99,59.01-46.41,12.6-9.86,22.78-13.6,37.41-13.62Z"/><path class="cls-31" d="M369.27,82.19c10.12-.23,20,2.93,28.61,9.53,20.89,16.03,41.7,32.18,62.45,48.4,7.38,5.77,14.77,11.58,21.63,17.94,15.01,13.92,12.58,31.46.45,43.36-6.86,6.73-14.61,12.6-22.18,18.57-19.43,15.33-38.91,30.58-58.5,45.7-15,11.58-31.74,15.45-50.02,9.53-5.16-1.67-10.3-4.31-14.61-7.6-26.18-20.07-52.16-40.42-78.11-60.79-6.03-4.73-11.06-10.43-13.73-17.82-3.55-9.83-2.35-19.16,4.95-26.64,7.04-7.22,14.76-13.84,22.63-20.15,19.53-15.65,39.3-30.99,59.01-46.41,12.6-9.86,22.78-13.6,37.41-13.62Z"/><path class="cls-32" d="M369.27,81.31c10.12-.23,20,2.93,28.61,9.53,20.89,16.03,41.7,32.18,62.45,48.4,7.38,5.77,14.77,11.58,21.63,17.94,15.01,13.92,12.58,31.46.45,43.36-6.86,6.73-14.61,12.6-22.18,18.57-19.43,15.33-38.91,30.58-58.5,45.7-15,11.58-31.74,15.45-50.02,9.53-5.16-1.67-10.3-4.31-14.61-7.6-26.18-20.07-52.16-40.42-78.11-60.79-6.03-4.73-11.06-10.43-13.73-17.82-3.55-9.83-2.35-19.16,4.95-26.64,7.04-7.22,14.76-13.84,22.63-20.15,19.53-15.65,39.3-30.99,59.01-46.41,12.6-9.86,22.78-13.6,37.41-13.62Z"/><path class="cls-30" d="M369.27,80.43c10.12-.23,20,2.93,28.61,9.53,20.89,16.03,41.7,32.18,62.45,48.4,7.38,5.77,14.77,11.58,21.63,17.94,15.01,13.92,12.58,31.46.45,43.36-6.86,6.73-14.61,12.6-22.18,18.57-19.43,15.33-38.91,30.58-58.5,45.7-15,11.58-31.74,15.45-50.02,9.53-5.16-1.67-10.3-4.31-14.61-7.6-26.18-20.07-52.16-40.42-78.11-60.79-6.03-4.73-11.06-10.43-13.73-17.82-3.55-9.83-2.35-19.16,4.95-26.64,7.04-7.22,14.76-13.84,22.63-20.15,19.53-15.65,39.3-30.99,59.01-46.41,12.6-9.86,22.78-13.6,37.41-13.62Z"/><path class="cls-23" d="M369.27,79.55c10.12-.23,20,2.93,28.61,9.53,20.89,16.03,41.7,32.18,62.45,48.4,7.38,5.77,14.77,11.58,21.63,17.94,15.01,13.92,12.58,31.46.45,43.36-6.86,6.73-14.61,12.6-22.18,18.57-19.43,15.33-38.91,30.58-58.5,45.7-15,11.58-31.74,15.45-50.02,9.53-5.16-1.67-10.3-4.31-14.61-7.6-26.18-20.07-52.16-40.42-78.11-60.79-6.03-4.73-11.06-10.43-13.73-17.82-3.55-9.83-2.35-19.16,4.95-26.64,7.04-7.22,14.76-13.84,22.63-20.15,19.53-15.65,39.3-30.99,59.01-46.41,12.6-9.86,22.78-13.6,37.41-13.62Z"/><path class="cls-24" d="M369.27,78.68c10.12-.23,20,2.93,28.61,9.53,20.89,16.03,41.7,32.18,62.45,48.4,7.38,5.77,14.77,11.58,21.63,17.94,15.01,13.92,12.58,31.46.45,43.36-6.86,6.73-14.61,12.6-22.18,18.57-19.43,15.33-38.91,30.58-58.5,45.7-15,11.58-31.74,15.45-50.02,9.53-5.16-1.67-10.3-4.31-14.61-7.6-26.18-20.07-52.16-40.42-78.11-60.79-6.03-4.73-11.06-10.43-13.73-17.82-3.55-9.83-2.35-19.16,4.95-26.64,7.04-7.22,14.76-13.84,22.63-20.15,19.53-15.65,39.3-30.99,59.01-46.41,12.6-9.86,22.78-13.6,37.41-13.62Z"/><path class="cls-69" d="M369.27,78.53c10.12-.23,20,2.93,28.61,9.53,20.89,16.03,41.7,32.18,62.45,48.4,7.38,5.77,14.77,11.58,21.63,17.94,15.01,13.92,12.58,31.46.45,43.36-6.86,6.73-14.61,12.6-22.18,18.57-19.43,15.33-38.91,30.58-58.5,45.7-15,11.58-31.74,15.45-50.02,9.53-5.16-1.67-10.3-4.31-14.61-7.6-26.18-20.07-52.16-40.42-78.11-60.79-6.03-4.73-11.06-10.43-13.73-17.82-3.55-9.83-2.35-19.16,4.95-26.64,7.04-7.22,14.76-13.84,22.63-20.15,19.53-15.65,39.3-30.99,59.01-46.41,12.6-9.86,22.78-13.6,37.41-13.62Z"/><path class="cls-73" d="M369.27,77.65c10.12-.23,20,2.93,28.61,9.53,20.89,16.03,41.7,32.18,62.45,48.4,7.38,5.77,14.77,11.58,21.63,17.94,15.01,13.92,12.58,31.46.45,43.36-6.86,6.73-14.61,12.6-22.18,18.57-19.43,15.33-38.91,30.58-58.5,45.7-15,11.58-31.74,15.45-50.02,9.53-5.16-1.67-10.3-4.31-14.61-7.6-26.18-20.07-52.16-40.42-78.11-60.79-6.03-4.73-11.06-10.43-13.73-17.82-3.55-9.83-2.35-19.16,4.95-26.64,7.04-7.22,14.76-13.84,22.63-20.15,19.53-15.65,39.3-30.99,59.01-46.41,12.6-9.86,22.78-13.6,37.41-13.62Z"/><path class="cls-72" d="M369.27,76.77c10.12-.23,20,2.93,28.61,9.53,20.89,16.03,41.7,32.18,62.45,48.4,7.38,5.77,14.77,11.58,21.63,17.94,15.01,13.92,12.58,31.46.45,43.36-6.86,6.73-14.61,12.6-22.18,18.57-19.43,15.33-38.91,30.58-58.5,45.7-15,11.58-31.74,15.45-50.02,9.53-5.16-1.67-10.3-4.31-14.61-7.6-26.18-20.07-52.16-40.42-78.11-60.79-6.03-4.73-11.06-10.43-13.73-17.82-3.55-9.83-2.35-19.16,4.95-26.64,7.04-7.22,14.76-13.84,22.63-20.15,19.53-15.65,39.3-30.99,59.01-46.41,12.6-9.86,22.78-13.6,37.41-13.62Z"/><path class="cls-77" d="M369.27,75.89c10.12-.23,20,2.93,28.61,9.53,20.89,16.03,41.7,32.18,62.45,48.4,7.38,5.77,14.77,11.58,21.63,17.94,15.01,13.92,12.58,31.46.45,43.36-6.86,6.73-14.61,12.6-22.18,18.57-19.43,15.33-38.91,30.58-58.5,45.7-15,11.58-31.74,15.45-50.02,9.53-5.16-1.67-10.3-4.31-14.61-7.6-26.18-20.07-52.16-40.42-78.11-60.79-6.03-4.73-11.06-10.43-13.73-17.82-3.55-9.83-2.35-19.16,4.95-26.64,7.04-7.22,14.76-13.84,22.63-20.15,19.53-15.65,39.3-30.99,59.01-46.41,12.6-9.86,22.78-13.6,37.41-13.62Z"/><path class="cls-74" d="M369.27,75.02c10.12-.23,20,2.93,28.61,9.53,20.89,16.03,41.7,32.18,62.45,48.4,7.38,5.77,14.77,11.58,21.63,17.94,15.01,13.92,12.58,31.46.45,43.36-6.86,6.73-14.61,12.6-22.18,18.57-19.43,15.33-38.91,30.58-58.5,45.7-15,11.58-31.74,15.45-50.02,9.53-5.16-1.67-10.3-4.31-14.61-7.6-26.18-20.07-52.16-40.42-78.11-60.79-6.03-4.73-11.06-10.43-13.73-17.82-3.55-9.83-2.35-19.16,4.95-26.64,7.04-7.22,14.76-13.84,22.63-20.15,19.53-15.65,39.3-30.99,59.01-46.41,12.6-9.86,22.78-13.6,37.41-13.62Z"/><path class="cls-76" d="M369.27,74.14c10.12-.23,20,2.93,28.61,9.53,20.89,16.03,41.7,32.18,62.45,48.4,7.38,5.77,14.77,11.58,21.63,17.94,15.01,13.92,12.58,31.46.45,43.36-6.86,6.73-14.61,12.6-22.18,18.57-19.43,15.33-38.91,30.58-58.5,45.7-15,11.58-31.74,15.45-50.02,9.53-5.16-1.67-10.3-4.31-14.61-7.6-26.18-20.07-52.16-40.42-78.11-60.79-6.03-4.73-11.06-10.43-13.73-17.82-3.55-9.83-2.35-19.16,4.95-26.64,7.04-7.22,14.76-13.84,22.63-20.15,19.53-15.65,39.3-30.99,59.01-46.41,12.6-9.86,22.78-13.6,37.41-13.62Z"/><path class="cls-75" d="M369.27,73.26c10.12-.23,20,2.93,28.61,9.53,20.89,16.03,41.7,32.18,62.45,48.4,7.38,5.77,14.77,11.58,21.63,17.94,15.01,13.92,12.58,31.46.45,43.36-6.86,6.73-14.61,12.6-22.18,18.57-19.43,15.33-38.91,30.58-58.5,45.7-15,11.58-31.74,15.45-50.02,9.53-5.16-1.67-10.3-4.31-14.61-7.6-26.18-20.07-52.16-40.42-78.11-60.79-6.03-4.73-11.06-10.43-13.73-17.82-3.55-9.83-2.35-19.16,4.95-26.64,7.04-7.22,14.76-13.84,22.63-20.15,19.53-15.65,39.3-30.99,59.01-46.41,12.6-9.86,22.78-13.6,37.41-13.62Z"/><path class="cls-71" d="M369.27,72.38c10.12-.23,20,2.93,28.61,9.53,20.89,16.03,41.7,32.18,62.45,48.4,7.38,5.77,14.77,11.58,21.63,17.94,15.01,13.92,12.58,31.46.45,43.36-6.86,6.73-14.61,12.6-22.18,18.57-19.43,15.33-38.91,30.58-58.5,45.7-15,11.58-31.74,15.45-50.02,9.53-5.16-1.67-10.3-4.31-14.61-7.6-26.18-20.07-52.16-40.42-78.11-60.79-6.03-4.73-11.06-10.43-13.73-17.82-3.55-9.83-2.35-19.16,4.95-26.64,7.04-7.22,14.76-13.84,22.63-20.15,19.53-15.65,39.3-30.99,59.01-46.41,12.6-9.86,22.78-13.6,37.41-13.62Z"/><path class="cls-70" d="M369.27,71.5c10.12-.23,20,2.93,28.61,9.53,20.89,16.03,41.7,32.18,62.45,48.4,7.38,5.77,14.77,11.58,21.63,17.94,15.01,13.92,12.58,31.46.45,43.36-6.86,6.73-14.61,12.6-22.18,18.57-19.43,15.33-38.91,30.58-58.5,45.7-15,11.58-31.74,15.45-50.02,9.53-5.16-1.67-10.3-4.31-14.61-7.6-26.18-20.07-52.16-40.42-78.11-60.79-6.03-4.73-11.06-10.43-13.73-17.82-3.55-9.83-2.35-19.16,4.95-26.64,7.04-7.22,14.76-13.84,22.63-20.15,19.53-15.65,39.3-30.99,59.01-46.41,12.6-9.86,22.78-13.6,37.41-13.62Z"/><path class="cls-53" d="M369.27,70.62c10.12-.23,20,2.93,28.61,9.53,20.89,16.03,41.7,32.18,62.45,48.4,7.38,5.77,14.77,11.58,21.63,17.94,15.01,13.92,12.58,31.46.45,43.36-6.86,6.73-14.61,12.6-22.18,18.57-19.43,15.33-38.91,30.58-58.5,45.7-15,11.58-31.74,15.45-50.02,9.53-5.16-1.67-10.3-4.31-14.61-7.6-26.18-20.07-52.16-40.42-78.11-60.79-6.03-4.73-11.06-10.43-13.73-17.82-3.55-9.83-2.35-19.16,4.95-26.64,7.04-7.22,14.76-13.84,22.63-20.15,19.53-15.65,39.3-30.99,59.01-46.41,12.6-9.86,22.78-13.6,37.41-13.62Z"/><path class="cls-52" d="M369.27,69.74c10.12-.23,20,2.93,28.61,9.53,20.89,16.03,41.7,32.18,62.45,48.4,7.38,5.77,14.77,11.58,21.63,17.94,15.01,13.92,12.58,31.46.45,43.36-6.86,6.73-14.61,12.6-22.18,18.57-19.43,15.33-38.91,30.58-58.5,45.7-15,11.58-31.74,15.45-50.02,9.53-5.16-1.67-10.3-4.31-14.61-7.6-26.18-20.07-52.16-40.42-78.11-60.79-6.03-4.73-11.06-10.43-13.73-17.82-3.55-9.83-2.35-19.16,4.95-26.64,7.04-7.22,14.76-13.84,22.63-20.15,19.53-15.65,39.3-30.99,59.01-46.41,12.6-9.86,22.78-13.6,37.41-13.62Z"/><path class="cls-50" d="M369.27,68.86c10.12-.23,20,2.93,28.61,9.53,20.89,16.03,41.7,32.18,62.45,48.4,7.38,5.77,14.77,11.58,21.63,17.94,15.01,13.92,12.58,31.46.45,43.36-6.86,6.73-14.61,12.6-22.18,18.57-19.43,15.33-38.91,30.58-58.5,45.7-15,11.58-31.74,15.45-50.02,9.53-5.16-1.67-10.3-4.31-14.61-7.6-26.18-20.07-52.16-40.42-78.11-60.79-6.03-4.73-11.06-10.43-13.73-17.82-3.55-9.83-2.35-19.16,4.95-26.64,7.04-7.22,14.76-13.84,22.63-20.15,19.53-15.65,39.3-30.99,59.01-46.41,12.6-9.86,22.78-13.6,37.41-13.62Z"/><path class="cls-49" d="M369.27,67.99c10.12-.23,20,2.93,28.61,9.53,20.89,16.03,41.7,32.18,62.45,48.4,7.38,5.77,14.77,11.58,21.63,17.94,15.01,13.92,12.58,31.46.45,43.36-6.86,6.73-14.61,12.6-22.18,18.57-19.43,15.33-38.91,30.58-58.5,45.7-15,11.58-31.74,15.45-50.02,9.53-5.16-1.67-10.3-4.31-14.61-7.6-26.18-20.07-52.16-40.42-78.11-60.79-6.03-4.73-11.06-10.43-13.73-17.82-3.55-9.83-2.35-19.16,4.95-26.64,7.04-7.22,14.76-13.84,22.63-20.15,19.53-15.65,39.3-30.99,59.01-46.41,12.6-9.86,22.78-13.6,37.41-13.62Z"/><path class="cls-54" d="M369.27,67.11c10.12-.23,20,2.93,28.61,9.53,20.89,16.03,41.7,32.18,62.45,48.4,7.38,5.77,14.77,11.58,21.63,17.94,15.01,13.92,12.58,31.46.45,43.36-6.86,6.73-14.61,12.6-22.18,18.57-19.43,15.33-38.91,30.58-58.5,45.7-15,11.58-31.74,15.45-50.02,9.53-5.16-1.67-10.3-4.31-14.61-7.6-26.18-20.07-52.16-40.42-78.11-60.79-6.03-4.73-11.06-10.43-13.73-17.82-3.55-9.83-2.35-19.16,4.95-26.64,7.04-7.22,14.76-13.84,22.63-20.15,19.53-15.65,39.3-30.99,59.01-46.41,12.6-9.86,22.78-13.6,37.41-13.62Z"/><path class="cls-51" d="M369.27,66.23c10.12-.23,20,2.93,28.61,9.53,20.89,16.03,41.7,32.18,62.45,48.4,7.38,5.77,14.77,11.58,21.63,17.94,15.01,13.92,12.58,31.46.45,43.36-6.86,6.73-14.61,12.6-22.18,18.57-19.43,15.33-38.91,30.58-58.5,45.7-15,11.58-31.74,15.45-50.02,9.53-5.16-1.67-10.3-4.31-14.61-7.6-26.18-20.07-52.16-40.42-78.11-60.79-6.03-4.73-11.06-10.43-13.73-17.82-3.55-9.83-2.35-19.16,4.95-26.64,7.04-7.22,14.76-13.84,22.63-20.15,19.53-15.65,39.3-30.99,59.01-46.41,12.6-9.86,22.78-13.6,37.41-13.62Z"/><path class="cls-48" d="M369.27,65.35c10.12-.23,20,2.93,28.61,9.53,20.89,16.03,41.7,32.18,62.45,48.4,7.38,5.77,14.77,11.58,21.63,17.94,15.01,13.92,12.58,31.46.45,43.36-6.86,6.73-14.61,12.6-22.18,18.57-19.43,15.33-38.91,30.58-58.5,45.7-15,11.58-31.74,15.45-50.02,9.53-5.16-1.67-10.3-4.31-14.61-7.6-26.18-20.07-52.16-40.42-78.11-60.79-6.03-4.73-11.06-10.43-13.73-17.82-3.55-9.83-2.35-19.16,4.95-26.64,7.04-7.22,14.76-13.84,22.63-20.15,19.53-15.65,39.3-30.99,59.01-46.41,12.6-9.86,22.78-13.6,37.41-13.62Z"/><path class="cls-47" d="M369.27,64.47c10.12-.23,20,2.93,28.61,9.53,20.89,16.03,41.7,32.18,62.45,48.4,7.38,5.77,14.77,11.58,21.63,17.94,15.01,13.92,12.58,31.46.45,43.36-6.86,6.73-14.61,12.6-22.18,18.57-19.43,15.33-38.91,30.58-58.5,45.7-15,11.58-31.74,15.45-50.02,9.53-5.16-1.67-10.3-4.31-14.61-7.6-26.18-20.07-52.16-40.42-78.11-60.79-6.03-4.73-11.06-10.43-13.73-17.82-3.55-9.83-2.35-19.16,4.95-26.64,7.04-7.22,14.76-13.84,22.63-20.15,19.53-15.65,39.3-30.99,59.01-46.41,12.6-9.86,22.78-13.6,37.41-13.62Z"/><path class="cls-62" d="M369.27,63.59c10.12-.23,20,2.93,28.61,9.53,20.89,16.03,41.7,32.18,62.45,48.4,7.38,5.77,14.77,11.58,21.63,17.94,15.01,13.92,12.58,31.46.45,43.36-6.86,6.73-14.61,12.6-22.18,18.57-19.43,15.33-38.91,30.58-58.5,45.7-15,11.58-31.74,15.45-50.02,9.53-5.16-1.67-10.3-4.31-14.61-7.6-26.18-20.07-52.16-40.42-78.11-60.79-6.03-4.73-11.06-10.43-13.73-17.82-3.55-9.83-2.35-19.16,4.95-26.64,7.04-7.22,14.76-13.84,22.63-20.15,19.53-15.65,39.3-30.99,59.01-46.41,12.6-9.86,22.78-13.6,37.41-13.62Z"/><path class="cls-55" d="M369.27,62.71c10.12-.23,20,2.93,28.61,9.53,20.89,16.03,41.7,32.18,62.45,48.4,7.38,5.77,14.77,11.58,21.63,17.94,15.01,13.92,12.58,31.46.45,43.36-6.86,6.73-14.61,12.6-22.18,18.57-19.43,15.33-38.91,30.58-58.5,45.7-15,11.58-31.74,15.45-50.02,9.53-5.16-1.67-10.3-4.31-14.61-7.6-26.18-20.07-52.16-40.42-78.11-60.79-6.03-4.73-11.06-10.43-13.73-17.82-3.55-9.83-2.35-19.16,4.95-26.64,7.04-7.22,14.76-13.84,22.63-20.15,19.53-15.65,39.3-30.99,59.01-46.41,12.6-9.86,22.78-13.6,37.41-13.62Z"/><path class="cls-59" d="M369.27,61.83c10.12-.23,20,2.93,28.61,9.53,20.89,16.03,41.7,32.18,62.45,48.4,7.38,5.77,14.77,11.58,21.63,17.94,15.01,13.92,12.58,31.46.45,43.36-6.86,6.73-14.61,12.6-22.18,18.57-19.43,15.33-38.91,30.58-58.5,45.7-15,11.58-31.74,15.45-50.02,9.53-5.16-1.67-10.3-4.31-14.61-7.6-26.18-20.07-52.16-40.42-78.11-60.79-6.03-4.73-11.06-10.43-13.73-17.82-3.55-9.83-2.35-19.16,4.95-26.64,7.04-7.22,14.76-13.84,22.63-20.15,19.53-15.65,39.3-30.99,59.01-46.41,12.6-9.86,22.78-13.6,37.41-13.62Z"/><path class="cls-56" d="M369.27,60.96c10.12-.23,20,2.93,28.61,9.53,20.89,16.03,41.7,32.18,62.45,48.4,7.38,5.77,14.77,11.58,21.63,17.94,15.01,13.92,12.58,31.46.45,43.36-6.86,6.73-14.61,12.6-22.18,18.57-19.43,15.33-38.91,30.58-58.5,45.7-15,11.58-31.74,15.45-50.02,9.53-5.16-1.67-10.3-4.31-14.61-7.6-26.18-20.07-52.16-40.42-78.11-60.79-6.03-4.73-11.06-10.43-13.73-17.82-3.55-9.83-2.35-19.16,4.95-26.64,7.04-7.22,14.76-13.84,22.63-20.15,19.53-15.65,39.3-30.99,59.01-46.41,12.6-9.86,22.78-13.6,37.41-13.62Z"/><path class="cls-60" d="M369.27,60.08c10.12-.23,20,2.93,28.61,9.53,20.89,16.03,41.7,32.18,62.45,48.4,7.38,5.77,14.77,11.58,21.63,17.94,15.01,13.92,12.58,31.46.45,43.36-6.86,6.73-14.61,12.6-22.18,18.57-19.43,15.33-38.91,30.58-58.5,45.7-15,11.58-31.74,15.45-50.02,9.53-5.16-1.67-10.3-4.31-14.61-7.6-26.18-20.07-52.16-40.42-78.11-60.79-6.03-4.73-11.06-10.43-13.73-17.82-3.55-9.83-2.35-19.16,4.95-26.64,7.04-7.22,14.76-13.84,22.63-20.15,19.53-15.65,39.3-30.99,59.01-46.41,12.6-9.86,22.78-13.6,37.41-13.62Z"/><path class="cls-61" d="M369.27,59.2c10.12-.23,20,2.93,28.61,9.53,20.89,16.03,41.7,32.18,62.45,48.4,7.38,5.77,14.77,11.58,21.63,17.94,15.01,13.92,12.58,31.46.45,43.36-6.86,6.73-14.61,12.6-22.18,18.57-19.43,15.33-38.91,30.58-58.5,45.7-15,11.58-31.74,15.45-50.02,9.53-5.16-1.67-10.3-4.31-14.61-7.6-26.18-20.07-52.16-40.42-78.11-60.79-6.03-4.73-11.06-10.43-13.73-17.82-3.55-9.83-2.35-19.16,4.95-26.64,7.04-7.22,14.76-13.84,22.63-20.15,19.53-15.65,39.3-30.99,59.01-46.41,12.6-9.86,22.78-13.6,37.41-13.62Z"/><path class="cls-63" d="M369.27,58.32c10.12-.23,20,2.93,28.61,9.53,20.89,16.03,41.7,32.18,62.45,48.4,7.38,5.77,14.77,11.58,21.63,17.94,15.01,13.92,12.58,31.46.45,43.36-6.86,6.73-14.61,12.6-22.18,18.57-19.43,15.33-38.91,30.58-58.5,45.7-15,11.58-31.74,15.45-50.02,9.53-5.16-1.67-10.3-4.31-14.61-7.6-26.18-20.07-52.16-40.42-78.11-60.79-6.03-4.73-11.06-10.43-13.73-17.82-3.55-9.83-2.35-19.16,4.95-26.64,7.04-7.22,14.76-13.84,22.63-20.15,19.53-15.65,39.3-30.99,59.01-46.41,12.6-9.86,22.78-13.6,37.41-13.62Z"/><path class="cls-64" d="M369.27,57.44c10.12-.23,20,2.93,28.61,9.53,20.89,16.03,41.7,32.18,62.45,48.4,7.38,5.77,14.77,11.58,21.63,17.94,15.01,13.92,12.58,31.46.45,43.36-6.86,6.73-14.61,12.6-22.18,18.57-19.43,15.33-38.91,30.58-58.5,45.7-15,11.58-31.74,15.45-50.02,9.53-5.16-1.67-10.3-4.31-14.61-7.6-26.18-20.07-52.16-40.42-78.11-60.79-6.03-4.73-11.06-10.43-13.73-17.82-3.55-9.83-2.35-19.16,4.95-26.64,7.04-7.22,14.76-13.84,22.63-20.15,19.53-15.65,39.3-30.99,59.01-46.41,12.6-9.86,22.78-13.6,37.41-13.62Z"/><path class="cls-57" d="M369.27,56.56c10.12-.23,20,2.93,28.61,9.53,20.89,16.03,41.7,32.18,62.45,48.4,7.38,5.77,14.77,11.58,21.63,17.94,15.01,13.92,12.58,31.46.45,43.36-6.86,6.73-14.61,12.6-22.18,18.57-19.43,15.33-38.91,30.58-58.5,45.7-15,11.58-31.74,15.45-50.02,9.53-5.16-1.67-10.3-4.31-14.61-7.6-26.18-20.07-52.16-40.42-78.11-60.79-6.03-4.73-11.06-10.43-13.73-17.82-3.55-9.83-2.35-19.16,4.95-26.64,7.04-7.22,14.76-13.84,22.63-20.15,19.53-15.65,39.3-30.99,59.01-46.41,12.6-9.86,22.78-13.6,37.41-13.62Z"/><path class="cls-58" d="M369.27,55.68c10.12-.23,20,2.93,28.61,9.53,20.89,16.03,41.7,32.18,62.45,48.4,7.38,5.77,14.77,11.58,21.63,17.94,15.01,13.92,12.58,31.46.45,43.36-6.86,6.73-14.61,12.6-22.18,18.57-19.43,15.33-38.91,30.58-58.5,45.7-15,11.58-31.74,15.45-50.02,9.53-5.16-1.67-10.3-4.31-14.61-7.6-26.18-20.07-52.16-40.42-78.11-60.79-6.03-4.73-11.06-10.43-13.73-17.82-3.55-9.83-2.35-19.16,4.95-26.64,7.04-7.22,14.76-13.84,22.63-20.15,19.53-15.65,39.3-30.99,59.01-46.41,12.6-9.86,22.78-13.6,37.41-13.62Z"/><path class="cls-46" d="M369.27,54.8c10.12-.23,20,2.93,28.61,9.53,20.89,16.03,41.7,32.18,62.45,48.4,7.38,5.77,14.77,11.58,21.63,17.94,15.01,13.92,12.58,31.46.45,43.36-6.86,6.73-14.61,12.6-22.18,18.57-19.43,15.33-38.91,30.58-58.5,45.7-15,11.58-31.74,15.45-50.02,9.53-5.16-1.67-10.3-4.31-14.61-7.6-26.18-20.07-52.16-40.42-78.11-60.79-6.03-4.73-11.06-10.43-13.73-17.82-3.55-9.83-2.35-19.16,4.95-26.64,7.04-7.22,14.76-13.84,22.63-20.15,19.53-15.65,39.3-30.99,59.01-46.41,12.6-9.86,22.78-13.6,37.41-13.62Z"/><path class="cls-45" d="M369.27,53.93c10.12-.23,20,2.93,28.61,9.53,20.89,16.03,41.7,32.18,62.45,48.4,7.38,5.77,14.77,11.58,21.63,17.94,15.01,13.92,12.58,31.46.45,43.36-6.86,6.73-14.61,12.6-22.18,18.57-19.43,15.33-38.91,30.58-58.5,45.7-15,11.58-31.74,15.45-50.02,9.53-5.16-1.67-10.3-4.31-14.61-7.6-26.18-20.07-52.16-40.42-78.11-60.79-6.03-4.73-11.06-10.43-13.73-17.82-3.55-9.83-2.35-19.16,4.95-26.64,7.04-7.22,14.76-13.84,22.63-20.15,19.53-15.65,39.3-30.99,59.01-46.41,12.6-9.86,22.78-13.6,37.41-13.62Z"/><path class="cls-65" d="M369.27,53.05c10.12-.23,20,2.93,28.61,9.53,20.89,16.03,41.7,32.18,62.45,48.4,7.38,5.77,14.77,11.58,21.63,17.94,15.01,13.92,12.58,31.46.45,43.36-6.86,6.73-14.61,12.6-22.18,18.57-19.43,15.33-38.91,30.58-58.5,45.7-15,11.58-31.74,15.45-50.02,9.53-5.16-1.67-10.3-4.31-14.61-7.6-26.18-20.07-52.16-40.42-78.11-60.79-6.03-4.73-11.06-10.43-13.73-17.82-3.55-9.83-2.35-19.16,4.95-26.64,7.04-7.22,14.76-13.84,22.63-20.15,19.53-15.65,39.3-30.99,59.01-46.41,12.6-9.86,22.78-13.6,37.41-13.62Z"/><path class="cls-66" d="M369.27,52.17c10.12-.23,20,2.93,28.61,9.53,20.89,16.03,41.7,32.18,62.45,48.4,7.38,5.77,14.77,11.58,21.63,17.94,15.01,13.92,12.58,31.46.45,43.36-6.86,6.73-14.61,12.6-22.18,18.57-19.43,15.33-38.91,30.58-58.5,45.7-15,11.58-31.74,15.45-50.02,9.53-5.16-1.67-10.3-4.31-14.61-7.6-26.18-20.07-52.16-40.42-78.11-60.79-6.03-4.73-11.06-10.43-13.73-17.82-3.55-9.83-2.35-19.16,4.95-26.64,7.04-7.22,14.76-13.84,22.63-20.15,19.53-15.65,39.3-30.99,59.01-46.41,12.6-9.86,22.78-13.6,37.41-13.62Z"/><path class="cls-97" d="M369.27,52.17c10.12-.23,20,2.93,28.61,9.53,20.89,16.03,41.7,32.18,62.45,48.4,7.38,5.77,14.77,11.58,21.63,17.94,15.01,13.92,12.58,31.46.45,43.36-6.86,6.73-14.61,12.6-22.18,18.57-19.43,15.33-38.91,30.58-58.5,45.7-15,11.58-31.74,15.45-50.02,9.53-5.16-1.67-10.3-4.31-14.61-7.6-26.18-20.07-52.16-40.42-78.11-60.79-6.03-4.73-11.06-10.43-13.73-17.82-3.55-9.83-2.35-19.16,4.95-26.64,7.04-7.22,14.76-13.84,22.63-20.15,19.53-15.65,39.3-30.99,59.01-46.41,12.6-9.86,22.78-13.6,37.41-13.62Z"/><path class="cls-95" d="M386.9,140.1c7.99,2.33,15.87,4.63,23.76,6.93,5.36,1.56,10.71,3.12,16.07,4.69.52.15,1.04.31,1.53.53,3.14,1.4,3.65,4.55.98,6.72-4,3.26-8.09,6.43-12.14,9.64-11.49,9.1-22.97,18.22-34.51,27.25-1.07.84-2.52,1.46-3.87,1.63-2.79.36-4.51-.81-5.66-3.42-4.49-10.14-8.99-20.28-13.42-30.46-.53-1.22-1.08-1.5-2.4-1.31-12.17,1.71-23.51-.38-33.34-8.09-14.43-11.33-14.6-30.17-.42-41.83,9.16-7.53,19.88-10.1,31.53-9.13,7.88.65,13.24,5.63,19.5,10.57,9.12,7.19,15.25,13.83,12.44,25.54-.04.17-.02.36-.04.74Z"/><path class="cls-94" d="M386.53,156.99c10.72,3.11,21.35,6.21,32,9.27.46.13,1.16.17,1.49-.08,3.32-2.57,6.67-5.11,9.83-7.87,1.76-1.54,1.36-4.09-.62-5.4-.78-.52-1.71-.87-2.62-1.14-10.04-2.93-20.09-5.82-30.13-8.74-3.25-.94-6.49-1.93-9.69-2.88.31-1.79.7-3.37.83-4.97.8-9.88-3.32-17.59-10.95-23.5-13.9-10.78-35.27-11.4-49.97-1.58-7.47,4.99-12.49,11.61-13.59,20.76-.43,3.54.05,6.96,1.4,10.63,2.19-5.33,5.37-9.52,9.69-12.71,12.59-9.28,26.49-10.98,41.17-6.25,9.21,2.97,16.46,8.54,20.46,17.66.44,1,.66,2.18.67,3.28.07,4.49.03,8.98.03,13.51Z"/><path class="cls-94" d="M386.53,156.99c0-4.53.04-9.02-.03-13.51-.02-1.1-.23-2.28-.67-3.28-4-9.12-11.25-14.7-20.46-17.66-14.68-4.73-28.57-3.03-41.17,6.25-4.32,3.19-7.51,7.38-9.69,12.71-1.35-3.67-1.83-7.09-1.4-10.63,1.11-9.15,6.12-15.78,13.59-20.76,14.7-9.81,35.5-8.76,49.4,2.02,7.62,5.91,12.37,13.4,11.57,23.28-.13,1.6-.46,2.9-.77,4.69,3.2.95,6.32,2,9.57,2.94,10.04,2.92,20.09,5.81,30.13,8.74.91.27,1.83.62,2.62,1.14,1.98,1.31,2.38,3.86.62,5.4-3.15,2.76-6.51,5.3-9.83,7.87-.33.25-1.03.22-1.49.08-10.64-3.06-21.28-6.16-32-9.27Z"/><path class="cls-98" d="M387.59,136.22c1.07-10.48-2.97-18.47-10.84-24.59-13.91-10.82-35.32-11.45-50.09-1.64-6.2,4.12-10.84,9.46-12.85,16.75-.88,3.17-1.43,6.65-.53,10.29.23-.61.4-1.12.48-1.4,1.85-6.35,5.59-11.44,10.92-15.25,12.57-8.97,26.37-10.6,40.85-5.79,10.45,3.47,18.29,10,21.56,20.99.04.14.2.25.5.63ZM386.67,149.06c12.56,3.66,25.1,7.2,37.55,11.03,2.48.76,3.96.06,5.53-1.46,1.97-1.91,1.71-4.49-.66-5.89-.76-.45-1.63-.75-2.48-1-8.5-2.5-17.01-4.98-25.52-7.46-4.76-1.38-9.41-2.8-14.29-4.21,0,3.04-.12,5.96-.12,8.99Z"/><path class="cls-98" d="M313.81,126.75c2.02-7.29,6.82-12.96,13.02-17.08,14.76-9.81,36.77-9.78,49.92,1.97,8.93,7.98,11.91,14.11,10.84,24.59-.3-.37-.46-.48-.5-.63-3.28-10.99-11.11-17.51-21.56-20.99-14.48-4.81-28.28-3.18-40.85,5.79-5.33,3.8-9.07,8.89-10.92,15.25"/><path class="cls-98" d="M386.67,149.06c0-3.03,9.65-6.17,14.41-4.78,8.51,2.47,17.02,4.96,25.52,7.46.85.25,1.73.55,2.48,1,2.36,1.41,2.62,3.98.66,5.89-1.56,1.52-3.05,2.23-5.53,1.46-12.45-3.83-24.99-7.37-37.55-11.03Z"/><path class="cls-96" d="M560.89,212.2c-4.93-1.99-8.83-4.84-11.71-8.55-2.88-3.71-4.5-8.14-4.87-13.29l-.06-.91h13.33l.12.79c.41,2.68,1.53,5,3.38,6.97,1.85,1.97,4.27,3.48,7.27,4.53,3,1.05,6.45,1.58,10.34,1.58s7.32-.55,10.16-1.64c2.84-1.09,5.04-2.66,6.6-4.68,1.56-2.03,2.34-4.4,2.34-7.12v-.06c0-3.53-1.27-6.34-3.8-8.43-2.54-2.09-6.72-3.76-12.56-5.02l-9.55-2.01c-8.6-1.83-15.01-4.75-19.23-8.79-4.22-4.04-6.33-9.3-6.33-15.79v-.06c.04-4.99,1.42-9.38,4.14-13.17,2.72-3.79,6.47-6.75,11.26-8.88,4.79-2.13,10.28-3.19,16.49-3.19s11.46,1.04,16.12,3.1c4.66,2.07,8.36,4.96,11.07,8.67,2.72,3.71,4.24,8.04,4.56,12.99l.06.97h-13.33l-.12-.79c-.37-2.76-1.37-5.11-3.01-7.06s-3.78-3.44-6.42-4.47c-2.64-1.03-5.7-1.55-9.19-1.55s-6.75.54-9.43,1.61c-2.68,1.08-4.75,2.57-6.21,4.47-1.46,1.91-2.19,4.16-2.19,6.75v.06c0,3.29,1.3,5.96,3.89,8.03,2.6,2.07,6.63,3.69,12.11,4.87l9.55,2.07c6.04,1.26,10.97,2.96,14.79,5.11,3.81,2.15,6.63,4.83,8.46,8.03,1.83,3.21,2.74,7.08,2.74,11.62v.06c0,5.35-1.35,9.99-4.05,13.9-2.7,3.92-6.55,6.94-11.56,9.07-5.01,2.13-10.98,3.2-17.92,3.2-6.57,0-12.32-1-17.25-2.98Z"/><path class="cls-96" d="M623.95,137.64c-1.5-1.48-2.25-3.26-2.25-5.32s.75-3.96,2.25-5.42c1.5-1.46,3.31-2.19,5.42-2.19s3.96.73,5.45,2.19c1.48,1.46,2.22,3.27,2.22,5.42s-.74,3.84-2.22,5.32c-1.48,1.48-3.3,2.22-5.45,2.22s-3.92-.74-5.42-2.22ZM622.74,149.71h13.26v64.01h-13.26v-64.01Z"/><path class="cls-96" d="M663.29,233.99c-4.08-1.54-7.35-3.63-9.83-6.27-2.47-2.64-4.04-5.58-4.69-8.82l-.12-.55h13.14l.18.49c.89,2.03,2.69,3.68,5.38,4.96,2.7,1.28,6.09,1.92,10.19,1.92,5.19,0,9.19-1.31,11.99-3.92s4.2-6.14,4.2-10.56v-8.82h-.3c-1.22,2.31-2.81,4.32-4.78,6.02-1.97,1.7-4.25,3.02-6.85,3.95-2.6.93-5.44,1.4-8.52,1.4-5.35,0-10.04-1.33-14.06-3.99-4.02-2.66-7.12-6.42-9.31-11.29-2.19-4.87-3.29-10.63-3.29-17.28v-.06c0-6.69,1.12-12.48,3.35-17.37,2.23-4.89,5.36-8.66,9.4-11.32,4.04-2.66,8.75-3.99,14.15-3.99,3.04,0,5.83.51,8.37,1.52,2.53,1.01,4.78,2.42,6.72,4.23,1.95,1.81,3.55,3.92,4.81,6.36h.3v-10.89h13.2v62.25c0,4.87-1.19,9.13-3.56,12.78-2.37,3.65-5.76,6.49-10.16,8.52-4.4,2.03-9.6,3.04-15.61,3.04-5.48,0-10.25-.77-14.33-2.31ZM685.81,200.4c2.5-1.78,4.44-4.3,5.84-7.54,1.4-3.25,2.1-7.06,2.1-11.44v-.06c0-4.38-.7-8.18-2.1-11.41s-3.36-5.72-5.87-7.48c-2.52-1.76-5.44-2.65-8.76-2.65s-6.44.87-8.98,2.62c-2.54,1.75-4.49,4.23-5.87,7.45-1.38,3.22-2.07,7.03-2.07,11.41v.06c0,4.5.69,8.37,2.07,11.59,1.38,3.23,3.34,5.72,5.87,7.48s5.53,2.65,8.98,2.65,6.3-.89,8.79-2.68Z"/><path class="cls-96" d="M719.85,149.71h13.26v9.67h.24c1.7-3.25,4.2-5.87,7.48-7.88,3.29-2.01,7.34-3.01,12.17-3.01,7.02,0,12.45,2.12,16.31,6.36,3.85,4.24,5.78,10.05,5.78,17.43v41.44h-13.2v-38.88c0-4.83-1.13-8.54-3.38-11.13s-5.65-3.89-10.19-3.89c-3.08,0-5.77.69-8.06,2.07-2.29,1.38-4.06,3.31-5.29,5.78-1.24,2.47-1.86,5.39-1.86,8.76v37.3h-13.26v-64.01Z"/><path class="cls-96" d="M789.4,125.92h13.63v87.8h-13.63v-87.8ZM802.17,167.91h1.28l35.35-41.98h16.19l-33.89,39.67h-1.7l-17.22,19.84v-17.52ZM810.51,171.98l9.74-9.37,37.66,51.11h-16.92l-30.48-41.74Z"/><path class="cls-96" d="M866.73,137.64c-1.5-1.48-2.25-3.26-2.25-5.32s.75-3.96,2.25-5.42c1.5-1.46,3.31-2.19,5.42-2.19s3.96.73,5.45,2.19c1.48,1.46,2.22,3.27,2.22,5.42s-.74,3.84-2.22,5.32c-1.48,1.48-3.3,2.22-5.45,2.22s-3.92-.74-5.42-2.22ZM865.52,149.71h13.26v64.01h-13.26v-64.01Z"/><path class="cls-96" d="M900.66,210.71c-3.1-2.86-4.65-7.49-4.65-13.9v-36.63h-9.19v-10.47h9.19v-16.67h13.51v16.67h11.99v10.47h-11.99v35.9c0,3.25.71,5.47,2.13,6.66,1.42,1.2,3.53,1.79,6.33,1.79.69,0,1.33-.03,1.92-.09.59-.06,1.13-.11,1.61-.15v10.16c-.77.12-1.74.24-2.92.37-1.18.12-2.43.18-3.77.18-6.33,0-11.04-1.43-14.15-4.29Z"/><path class="cls-96" d="M548.37,250.57c-1.24-.49-2.21-1.19-2.92-2.11-.71-.92-1.11-2.02-1.19-3.31v-.23s4.13,0,4.13,0l.03.16c.1.54.34,1.01.73,1.4s.9.7,1.53.92c.63.22,1.34.33,2.14.33s1.51-.11,2.1-.33c.59-.22,1.04-.53,1.36-.93.32-.4.48-.87.48-1.4h0c0-.72-.28-1.28-.84-1.68-.56-.4-1.49-.73-2.78-1l-2.21-.45c-2.06-.41-3.62-1.11-4.67-2.1s-1.58-2.28-1.58-3.86h0c0-1.29.36-2.41,1.05-3.36.69-.95,1.63-1.69,2.83-2.22,1.2-.53,2.58-.8,4.13-.8s3.02.25,4.19.76c1.18.51,2.1,1.22,2.75,2.14s1.02,1.99,1.09,3.22v.26s-4.13,0-4.13,0l-.03-.17c-.07-.55-.27-1.02-.62-1.41-.34-.39-.79-.69-1.34-.9-.55-.21-1.19-.32-1.92-.32s-1.39.11-1.93.32-.96.51-1.24.89c-.29.38-.43.82-.43,1.32h0c0,.68.28,1.22.84,1.62.56.4,1.44.72,2.65.97l2.22.45c1.46.29,2.67.69,3.61,1.21.94.51,1.63,1.16,2.09,1.94.45.78.68,1.72.68,2.81h0c0,1.36-.34,2.53-1.01,3.51-.67.98-1.64,1.74-2.91,2.28s-2.78.81-4.54.81c-1.66,0-3.1-.25-4.34-.73Z"/><path class="cls-96" d="M566.47,250.28c-1.14-.65-2.03-1.59-2.65-2.8-.62-1.21-.93-2.65-.93-4.3h0c0-1.67.31-3.11.93-4.32s1.49-2.16,2.61-2.82c1.12-.66,2.44-1,3.96-1s2.84.32,3.95.97c1.11.64,1.97,1.55,2.57,2.73.61,1.17.91,2.54.91,4.11v1.32h-12.84v-2.69h10.83l-2.02,2.51v-1.64c0-.91-.14-1.67-.42-2.29-.28-.62-.67-1.08-1.17-1.39-.5-.31-1.08-.46-1.74-.46s-1.24.16-1.75.48c-.51.32-.91.79-1.19,1.4-.29.62-.43,1.37-.43,2.26v1.66c0,.85.14,1.58.43,2.19.29.61.7,1.08,1.23,1.4.53.32,1.17.49,1.9.49.58,0,1.09-.09,1.51-.28.43-.18.78-.42,1.05-.7s.46-.57.55-.86l.03-.09h3.9l-.04.16c-.12.57-.34,1.15-.68,1.73-.34.58-.8,1.11-1.37,1.6-.58.48-1.28.87-2.11,1.16-.83.29-1.8.44-2.92.44-1.59,0-2.96-.33-4.1-.98Z"/><path class="cls-96" d="M582.74,250.64c-1.01-.42-1.8-1-2.36-1.74-.56-.74-.9-1.6-1.02-2.58v-.13s4.13,0,4.13,0l.03.13c.14.61.44,1.09.92,1.42.47.34,1.13.51,1.98.51.54,0,1-.07,1.38-.2s.67-.32.88-.56.31-.53.31-.87h0c0-.43-.15-.77-.45-1.02-.3-.25-.83-.46-1.6-.62l-2.65-.57c-1.01-.21-1.85-.52-2.53-.92-.68-.4-1.19-.9-1.53-1.5-.34-.6-.51-1.28-.51-2.06h0c0-1.01.27-1.88.81-2.6.54-.73,1.3-1.29,2.28-1.69.98-.4,2.13-.6,3.45-.6s2.55.22,3.51.66c.96.44,1.71,1.03,2.22,1.78.52.75.79,1.58.82,2.49v.14h-3.91v-.12c-.08-.55-.34-1.01-.79-1.39-.45-.37-1.07-.56-1.85-.56-.49,0-.91.07-1.26.2-.36.14-.63.33-.83.57-.19.24-.29.53-.29.87h0c0,.28.07.51.2.72.13.21.35.39.66.54.31.16.73.29,1.25.41l2.65.57c1.64.34,2.81.85,3.53,1.53.71.68,1.07,1.59,1.07,2.73h0c0,1.03-.29,1.92-.87,2.67-.58.76-1.38,1.34-2.41,1.77s-2.2.63-3.54.63c-1.43,0-2.66-.21-3.67-.62Z"/><path class="cls-96" d="M598.07,250.64c-1.01-.42-1.8-1-2.36-1.74-.56-.74-.9-1.6-1.02-2.58v-.13s4.13,0,4.13,0l.03.13c.14.61.44,1.09.92,1.42.47.34,1.13.51,1.98.51.54,0,1-.07,1.38-.2s.67-.32.88-.56.31-.53.31-.87h0c0-.43-.15-.77-.45-1.02-.3-.25-.83-.46-1.6-.62l-2.65-.57c-1.01-.21-1.85-.52-2.53-.92-.68-.4-1.19-.9-1.53-1.5-.34-.6-.51-1.28-.51-2.06h0c0-1.01.27-1.88.81-2.6.54-.73,1.3-1.29,2.28-1.69.98-.4,2.13-.6,3.45-.6s2.55.22,3.51.66c.96.44,1.71,1.03,2.22,1.78.52.75.79,1.58.82,2.49v.14h-3.91v-.12c-.08-.55-.34-1.01-.79-1.39-.45-.37-1.07-.56-1.85-.56-.49,0-.91.07-1.26.2-.36.14-.63.33-.83.57-.19.24-.29.53-.29.87h0c0,.28.07.51.2.72.13.21.35.39.66.54.31.16.73.29,1.25.41l2.65.57c1.64.34,2.81.85,3.53,1.53.71.68,1.07,1.59,1.07,2.73h0c0,1.03-.29,1.92-.87,2.67-.58.76-1.38,1.34-2.41,1.77s-2.2.63-3.54.63c-1.43,0-2.66-.21-3.67-.62Z"/><path class="cls-96" d="M611.24,232.71c-.44-.44-.66-.96-.66-1.56s.22-1.13.66-1.56c.44-.43.98-.65,1.62-.65s1.18.22,1.61.65c.44.43.65.95.65,1.56s-.22,1.12-.65,1.56c-.44.44-.97.66-1.61.66s-1.18-.22-1.62-.66ZM610.72,235.36h4.26v15.58h-4.26v-15.58Z"/><path class="cls-96" d="M620.87,250.3c-1.15-.64-2.05-1.58-2.68-2.79-.63-1.22-.95-2.67-.95-4.35v-.03c0-1.68.32-3.12.97-4.33.64-1.21,1.54-2.13,2.7-2.78s2.5-.97,4.06-.97,2.92.32,4.08.97c1.16.64,2.06,1.57,2.7,2.78.64,1.21.96,2.65.96,4.34v.03c0,1.7-.32,3.15-.95,4.36-.63,1.21-1.53,2.14-2.68,2.78s-2.51.97-4.08.97-2.95-.32-4.1-.97ZM626.77,247.37c.5-.37.89-.92,1.17-1.63.28-.71.41-1.58.41-2.59v-.03c0-1-.14-1.85-.42-2.57-.28-.71-.68-1.25-1.18-1.63s-1.11-.56-1.79-.56-1.27.19-1.78.57-.9.92-1.18,1.63-.42,1.56-.42,2.56v.03c0,1.02.14,1.88.42,2.59.28.71.67,1.25,1.18,1.63s1.12.56,1.82.56,1.28-.19,1.79-.56Z"/><path class="cls-96" d="M634.86,235.36h4.25v2.56h.09c.41-.89,1.01-1.59,1.8-2.11.79-.51,1.78-.77,2.95-.77,1.72,0,3.04.52,3.98,1.55.94,1.03,1.4,2.46,1.4,4.29v10.06h-4.25v-9.17c0-1.02-.24-1.81-.72-2.37-.48-.56-1.2-.84-2.14-.84-.63,0-1.18.15-1.64.44-.46.29-.83.69-1.08,1.21s-.38,1.11-.38,1.79v8.95h-4.25v-15.58Z"/><path class="cls-96" d="M707.87,229.97h4.39v20.98h-4.39v-20.98ZM712.08,239.56h.28l7.69-9.59h4.88l-7.7,9.49h-.86l-4.29,5.29v-5.19ZM713.49,241.01l3.17-2.89,8.81,12.82h-5.26l-6.72-9.93Z"/><path class="cls-96" d="M728.93,250.28c-1.14-.65-2.03-1.59-2.65-2.8-.62-1.21-.93-2.65-.93-4.3h0c0-1.67.31-3.11.93-4.32s1.49-2.16,2.61-2.82c1.12-.66,2.44-1,3.96-1s2.84.32,3.95.97c1.11.64,1.97,1.55,2.57,2.73.61,1.17.91,2.54.91,4.11v1.32h-12.84v-2.69h10.83l-2.02,2.51v-1.64c0-.91-.14-1.67-.42-2.29-.28-.62-.67-1.08-1.17-1.39-.5-.31-1.08-.46-1.74-.46s-1.24.16-1.75.48c-.51.32-.91.79-1.19,1.4-.29.62-.43,1.37-.43,2.26v1.66c0,.85.14,1.58.43,2.19.29.61.7,1.08,1.23,1.4.53.32,1.17.49,1.9.49.58,0,1.09-.09,1.51-.28.43-.18.78-.42,1.05-.7s.46-.57.55-.86l.03-.09h3.9l-.04.16c-.12.57-.34,1.15-.68,1.73-.34.58-.8,1.11-1.37,1.6-.58.48-1.28.87-2.11,1.16-.83.29-1.8.44-2.92.44-1.59,0-2.96-.33-4.1-.98Z"/><path class="cls-96" d="M745.46,250.28c-1.14-.65-2.03-1.59-2.65-2.8-.62-1.21-.93-2.65-.93-4.3h0c0-1.67.31-3.11.93-4.32s1.49-2.16,2.61-2.82c1.12-.66,2.44-1,3.96-1s2.84.32,3.95.97c1.11.64,1.97,1.55,2.57,2.73.61,1.17.91,2.54.91,4.11v1.32h-12.84v-2.69h10.83l-2.02,2.51v-1.64c0-.91-.14-1.67-.42-2.29-.28-.62-.67-1.08-1.17-1.39-.5-.31-1.08-.46-1.74-.46s-1.24.16-1.75.48c-.51.32-.91.79-1.19,1.4-.29.62-.43,1.37-.43,2.26v1.66c0,.85.14,1.58.43,2.19.29.61.7,1.08,1.23,1.4.53.32,1.17.49,1.9.49.58,0,1.09-.09,1.51-.28.43-.18.78-.42,1.05-.7s.46-.57.55-.86l.03-.09h3.9l-.04.16c-.12.57-.34,1.15-.68,1.73-.34.58-.8,1.11-1.37,1.6-.58.48-1.28.87-2.11,1.16-.83.29-1.8.44-2.92.44-1.59,0-2.96-.33-4.1-.98Z"/><path class="cls-96" d="M758.99,235.36h4.25v2.72h.1c.28-.63.65-1.17,1.11-1.63.46-.46,1-.8,1.61-1.05.62-.24,1.29-.36,2.03-.36,1.32,0,2.45.32,3.4.97.95.64,1.68,1.57,2.2,2.78.51,1.21.77,2.66.77,4.35h0c0,1.7-.25,3.15-.76,4.36-.51,1.21-1.23,2.14-2.17,2.79-.94.65-2.06.97-3.37.97-.74,0-1.42-.12-2.05-.36s-1.18-.58-1.64-1.02-.84-.97-1.13-1.59h-.09v7.75h-4.25v-20.67ZM768.53,247.19c.51-.37.91-.9,1.18-1.59.28-.69.41-1.5.41-2.44h0c0-.96-.14-1.78-.42-2.46-.28-.68-.68-1.21-1.19-1.58-.51-.37-1.12-.55-1.82-.55s-1.29.19-1.82.56c-.52.37-.93.9-1.22,1.59-.29.69-.44,1.5-.44,2.44h0c0,.94.15,1.75.44,2.44.29.69.7,1.22,1.22,1.59s1.12.56,1.81.56,1.32-.19,1.83-.56Z"/><path class="cls-96" d="M779.65,250.28c-1.14-.65-2.03-1.59-2.65-2.8-.62-1.21-.93-2.65-.93-4.3h0c0-1.67.31-3.11.93-4.32s1.49-2.16,2.61-2.82c1.12-.66,2.44-1,3.96-1s2.84.32,3.95.97c1.11.64,1.97,1.55,2.57,2.73.61,1.17.91,2.54.91,4.11v1.32h-12.84v-2.69h10.83l-2.02,2.51v-1.64c0-.91-.14-1.67-.42-2.29-.28-.62-.67-1.08-1.17-1.39-.5-.31-1.08-.46-1.74-.46s-1.24.16-1.75.48c-.51.32-.91.79-1.19,1.4-.29.62-.43,1.37-.43,2.26v1.66c0,.85.14,1.58.43,2.19.29.61.7,1.08,1.23,1.4.53.32,1.17.49,1.9.49.58,0,1.09-.09,1.51-.28.43-.18.78-.42,1.05-.7s.46-.57.55-.86l.03-.09h3.9l-.04.16c-.12.57-.34,1.15-.68,1.73-.34.58-.8,1.11-1.37,1.6-.58.48-1.28.87-2.11,1.16-.83.29-1.8.44-2.92.44-1.59,0-2.96-.33-4.1-.98Z"/><path class="cls-96" d="M793.18,235.36h4.25v2.72h.09c.23-.96.65-1.71,1.26-2.24.61-.53,1.37-.8,2.28-.8.23,0,.46.01.67.04.21.03.4.07.55.12v3.75c-.17-.08-.4-.14-.67-.18-.27-.04-.56-.07-.87-.07-.7,0-1.29.14-1.79.41-.5.27-.87.67-1.13,1.19-.26.52-.39,1.16-.39,1.92v8.72h-4.25v-15.58Z"/><path class="cls-96" d="M811.03,238.56h-2.12v-3.2h2.12v-1.24c0-1.02.17-1.86.52-2.52.34-.66.89-1.16,1.64-1.48.75-.32,1.74-.48,2.97-.48.39,0,.78.02,1.18.05.4.03.72.08.96.12v2.81c-.15-.02-.32-.04-.51-.05-.19-.01-.39-.02-.58-.02-.7,0-1.21.15-1.54.44-.33.3-.5.72-.5,1.27v1.09h3.1v3.2h-2.99v12.38h-4.25v-12.38Z"/><path class="cls-96" d="M822.46,250.3c-1.15-.64-2.05-1.58-2.68-2.79-.63-1.22-.95-2.67-.95-4.35v-.03c0-1.68.32-3.12.97-4.33.64-1.21,1.54-2.13,2.7-2.78s2.5-.97,4.06-.97,2.92.32,4.08.97c1.16.64,2.06,1.57,2.7,2.78.64,1.21.96,2.65.96,4.34v.03c0,1.7-.32,3.15-.95,4.36-.63,1.21-1.53,2.14-2.68,2.78s-2.51.97-4.08.97-2.95-.32-4.1-.97ZM828.36,247.37c.5-.37.89-.92,1.17-1.63.28-.71.41-1.58.41-2.59v-.03c0-1-.14-1.85-.42-2.57-.28-.71-.68-1.25-1.18-1.63s-1.11-.56-1.79-.56-1.27.19-1.78.57-.9.92-1.18,1.63-.42,1.56-.42,2.56v.03c0,1.02.14,1.88.42,2.59.28.71.67,1.25,1.18,1.63s1.12.56,1.82.56,1.28-.19,1.79-.56Z"/><path class="cls-96" d="M836.46,235.36h4.25v2.72h.09c.23-.96.65-1.71,1.26-2.24.61-.53,1.37-.8,2.28-.8.23,0,.46.01.67.04.21.03.4.07.55.12v3.75c-.17-.08-.4-.14-.67-.18-.27-.04-.56-.07-.87-.07-.7,0-1.29.14-1.79.41-.5.27-.87.67-1.13,1.19-.26.52-.39,1.16-.39,1.92v8.72h-4.25v-15.58Z"/><path class="cls-96" d="M856.86,250.57c-1.24-.49-2.21-1.19-2.92-2.11-.71-.92-1.11-2.02-1.19-3.31v-.23s4.13,0,4.13,0l.03.16c.1.54.34,1.01.73,1.4s.9.7,1.53.92c.63.22,1.34.33,2.14.33s1.51-.11,2.1-.33c.59-.22,1.04-.53,1.36-.93.32-.4.48-.87.48-1.4h0c0-.72-.28-1.28-.84-1.68-.56-.4-1.49-.73-2.78-1l-2.21-.45c-2.06-.41-3.62-1.11-4.67-2.1s-1.58-2.28-1.58-3.86h0c0-1.29.36-2.41,1.05-3.36.69-.95,1.63-1.69,2.83-2.22,1.2-.53,2.58-.8,4.13-.8s3.02.25,4.19.76c1.18.51,2.1,1.22,2.75,2.14s1.02,1.99,1.09,3.22v.26s-4.13,0-4.13,0l-.03-.17c-.07-.55-.27-1.02-.62-1.41-.34-.39-.79-.69-1.34-.9-.55-.21-1.19-.32-1.92-.32s-1.39.11-1.93.32-.96.51-1.24.89c-.29.38-.43.82-.43,1.32h0c0,.68.28,1.22.84,1.62.56.4,1.44.72,2.65.97l2.22.45c1.46.29,2.67.69,3.61,1.21.94.51,1.63,1.16,2.09,1.94.45.78.68,1.72.68,2.81h0c0,1.36-.34,2.53-1.01,3.51-.67.98-1.64,1.74-2.91,2.28s-2.78.81-4.54.81c-1.66,0-3.1-.25-4.34-.73Z"/><path class="cls-96" d="M870.85,235.36h4.29l2.35,11.56h.09l2.76-11.56h4.07l2.78,11.56h.09l2.37-11.56h4.19l-4.13,15.58h-4.52l-2.82-11.02h-.09l-2.81,11.02h-4.46l-4.16-15.58Z"/><path class="cls-96" d="M896.08,232.71c-.44-.44-.66-.96-.66-1.56s.22-1.13.66-1.56c.44-.43.98-.65,1.62-.65s1.18.22,1.61.65c.44.43.65.95.65,1.56s-.22,1.12-.65,1.56c-.44.44-.97.66-1.61.66s-1.18-.22-1.62-.66ZM895.56,235.36h4.26v15.58h-4.26v-15.58Z"/><path class="cls-96" d="M903.79,238.56h-2.12v-3.2h2.12v-1.24c0-1.02.17-1.86.52-2.52.34-.66.89-1.16,1.64-1.48.75-.32,1.74-.48,2.97-.48.39,0,.78.02,1.18.05.4.03.72.08.96.12v2.81c-.15-.02-.32-.04-.51-.05-.19-.01-.39-.02-.58-.02-.7,0-1.21.15-1.54.44-.33.3-.5.72-.5,1.27v1.09h3.1v3.2h-2.99v12.38h-4.25v-12.38Z"/><path class="cls-96" d="M915.61,250.17c-.83-.73-1.25-1.92-1.25-3.59v-8.02h-2.17v-3.2h2.17v-3.81h4.29v3.81h2.85v3.2h-2.85v7.56c0,.73.16,1.23.49,1.52.33.29.81.43,1.45.43.19,0,.36,0,.51-.02.15-.01.28-.03.41-.05v3.11c-.23.04-.52.07-.87.11s-.74.05-1.18.05c-1.72,0-3-.36-3.84-1.09Z"/></g></svg>